<svg xmlns="http://www.w3.org/2000/svg" viewBox="0 0 240 60" width="240" height="60">
  <path d="M 0 50.4 C 0.3 50.4, 1.3 50.4, 2 50.4 C 2.7 50.4, 3.3 50.5, 4 50.5 C 4.7 50.4, 5.3 50.2, 6 50.2 C 6.7 50.1, 7.3 50.5, 8 50.4 C 8.7 50.4, 9.3 49.9, 10 49.9 C 10.7 49.8, 11.3 50.1, 12 50 C 12.7 49.8, 13.3 49.4, 14 49 C 14.7 48.6, 15.3 48.1, 16 47.3 C 16.7 46.5, 17.3 44.9, 18 44.1 C 18.7 43.2, 19.3 42.6, 20 42.2 C 20.7 41.7, 21.3 41.5, 22 41.4 C 22.7 41.3, 23.3 41.7, 24 41.3 C 24.7 40.9, 25.3 39.9, 26 39.1 C 26.7 38.3, 27.3 37.4, 28 36.4 C 28.7 35.4, 29.3 34, 30 33 C 30.7 31.9, 31.3 31.2, 32 30.3 C 32.7 29.4, 33.3 28.3, 34 27.6 C 34.7 26.8, 35.3 26.3, 36 25.5 C 36.7 24.7, 37.3 23.5, 38 22.9 C 38.7 22.3, 39.3 22.3, 40 22 C 40.7 21.7, 41.3 21.1, 42 21.1 C 42.7 21.1, 43.3 21.8, 44 22 C 44.7 22.2, 45.3 22.3, 46 22.2 C 46.7 22, 47.3 21.4, 48 21 C 48.7 20.5, 49.3 20, 50 19.5 C 50.7 18.9, 51.3 18.3, 52 17.8 C 52.7 17.2, 53.3 16.7, 54 16.3 C 54.7 15.9, 55.3 15.5, 56 15.2 C 56.7 14.8, 57.3 14.6, 58 14.2 C 58.7 13.8, 59.3 12.3, 60 12.8 C 60.7 13.3, 61.3 16.4, 62 17.1 C 62.7 17.7, 63.3 17.2, 64 16.8 C 64.7 16.3, 65.3 14.2, 66 14.5 C 66.7 14.7, 67.3 18.4, 68 18.3 C 68.7 18.2, 69.3 14.5, 70 13.8 C 70.7 13, 71.3 13.6, 72 13.9 C 72.7 14.1, 73.3 15.1, 74 15.2 C 74.7 15.4, 75.3 15.1, 76 14.8 C 76.7 14.6, 77.3 14.2, 78 13.9 C 78.7 13.7, 79.3 13, 80 13.3 C 80.7 13.5, 81.3 15, 82 15.4 C 82.7 15.8, 83.3 16, 84 15.9 C 84.7 15.7, 85.3 15, 86 14.4 C 86.7 13.8, 87.3 12.9, 88 12.3 C 88.7 11.8, 89.3 11.7, 90 11.1 C 90.7 10.5, 91.3 9.4, 92 8.9 C 92.7 8.4, 93.3 8.1, 94 7.9 C 94.7 7.7, 95.3 8.1, 96 7.7 C 96.7 7.3, 97.3 5.9, 98 5.5 C 98.7 5, 99.3 5.2, 100 5 C 100.7 4.9, 101.3 5, 102 4.8 C 102.7 4.6, 103.3 3.7, 104 4.1 C 104.7 4.5, 105.3 6.5, 106 7.3 C 106.7 8.2, 107.3 9, 108 9.4 C 108.7 9.8, 109.3 9.4, 110 9.9 C 110.7 10.4, 111.3 11.6, 112 12.6 C 112.7 13.7, 113.3 15.4, 114 16.2 C 114.7 17, 115.3 16.7, 116 17.2 C 116.7 17.7, 117.3 18.4, 118 19.2 C 118.7 19.9, 119.3 20.7, 120 21.7 C 120.7 22.7, 121.3 24.3, 122 25.4 C 122.7 26.4, 123.3 27, 124 28.1 C 124.7 29.1, 125.3 31.2, 126 31.7 C 126.7 32.3, 127.3 31.5, 128 31.5 C 128.7 31.4, 129.3 31.3, 130 31.3 C 130.7 31.2, 131.3 31.2, 132 31.2 C 132.7 31.2, 133.3 31.2, 134 31.2 C 134.7 31.1, 135.3 31.1, 136 31.1 C 136.7 31, 137.3 31.1, 138 30.9 C 138.7 30.8, 139.3 30.7, 140 30.4 C 140.7 30.1, 141.3 29.5, 142 29.1 C 142.7 28.7, 143.3 28.5, 144 28.1 C 144.7 27.7, 145.3 27.4, 146 26.9 C 146.7 26.4, 147.3 25.7, 148 25.2 C 148.7 24.8, 149.3 24.5, 150 24.2 C 150.7 23.8, 151.3 23.5, 152 23.2 C 152.7 22.8, 153.3 22.5, 154 22.1 C 154.7 21.6, 155.3 20.8, 156 20.3 C 156.7 19.8, 157.3 19.3, 158 18.9 C 158.7 18.5, 159.3 18.2, 160 17.8 C 160.7 17.4, 161.3 17, 162 16.5 C 162.7 16.1, 163.3 15.6, 164 15.1 C 164.7 14.7, 165.3 14.2, 166 13.7 C 166.7 13.3, 167.3 12.7, 168 12.3 C 168.7 11.8, 169.3 11.4, 170 11 C 170.7 10.5, 171.3 10.2, 172 9.7 C 172.7 9.3, 173.3 8.8, 174 8.3 C 174.7 7.8, 175.3 7.5, 176 6.9 C 176.7 6.2, 177.3 5.1, 178 4.7 C 178.7 4.2, 179.3 4.4, 180 4.3 C 180.7 4.2, 181.3 3.6, 182 4 C 182.7 4.5, 183.3 6.4, 184 7.2 C 184.7 8, 185.3 8.6, 186 8.8 C 186.7 9, 187.3 7.9, 188 8.2 C 188.7 8.6, 189.3 10, 190 10.7 C 190.7 11.4, 191.3 11.8, 192 12.5 C 192.7 13.2, 193.3 14.2, 194 14.8 C 194.7 15.5, 195.3 16, 196 16.5 C 196.7 17.1, 197.3 17.3, 198 18.1 C 198.7 18.8, 199.3 20, 200 21 C 200.7 21.9, 201.3 23.2, 202 23.7 C 202.7 24.3, 203.3 24.1, 204 24.1 C 204.7 24.2, 205.3 24.1, 206 24.1 C 206.7 24.2, 207.3 24, 208 24.3 C 208.7 24.6, 209.3 25, 210 25.9 C 210.7 26.8, 211.3 28.7, 212 29.8 C 212.7 31, 213.3 32, 214 32.7 C 214.7 33.5, 215.3 33.5, 216 34.1 C 216.7 34.7, 217.3 35.2, 218 36.2 C 218.7 37.3, 219.3 38.7, 220 40.2 C 220.7 41.6, 221.3 43.2, 222 45 C 222.7 46.8, 223.3 49.7, 224 51 C 224.7 52.2, 225.3 52, 226 52.6 C 226.7 53.2, 227.3 54, 228 54.3 C 228.7 54.7, 229.3 54.4, 230 54.7 C 230.7 54.9, 231.3 55.6, 232 55.8 C 232.7 56, 233.3 56.1, 234 55.8 C 234.7 55.6, 235.3 55.1, 236 54.4 C 236.7 53.7, 237.3 52.3, 238 51.7 C 238.7 51, 239.7 50.7, 240 50.5 L 240 58 L 0 58 Z" stroke="#2a4a35" stroke-width="1.5" fill="#2a4a35" fill-opacity="0.2"/>
</svg>