<svg xmlns="http://www.w3.org/2000/svg" viewBox="0 0 240 60" width="240" height="60">
  <path d="M 0 55.9 C 0.3 55.9, 1.3 56, 2 55.9 C 2.7 55.9, 3.3 56.1, 4 55.5 C 4.7 55, 5.3 53.4, 6 52.7 C 6.7 52, 7.3 52.1, 8 51.4 C 8.7 50.8, 9.3 49.5, 10 48.9 C 10.7 48.4, 11.3 48.6, 12 48.3 C 12.7 47.9, 13.3 47.4, 14 47 C 14.7 46.6, 15.3 46.3, 16 45.9 C 16.7 45.5, 17.3 45, 18 44.7 C 18.7 44.4, 19.3 44.3, 20 44.1 C 20.7 43.9, 21.3 43.9, 22 43.6 C 22.7 43.4, 23.3 43.1, 24 42.7 C 24.7 42.3, 25.3 41.7, 26 41.2 C 26.7 40.7, 27.3 40.1, 28 39.6 C 28.7 39.2, 29.3 39.1, 30 38.6 C 30.7 38, 31.3 37.1, 32 36.3 C 32.7 35.6, 33.3 35, 34 34.3 C 34.7 33.5, 35.3 32.2, 36 31.7 C 36.7 31.3, 37.3 31.7, 38 31.7 C 38.7 31.7, 39.3 31.7, 40 31.7 C 40.7 31.7, 41.3 32, 42 31.8 C 42.7 31.5, 43.3 30.9, 44 30.3 C 44.7 29.7, 45.3 28.6, 46 27.9 C 46.7 27.2, 47.3 26.7, 48 26.1 C 48.7 25.5, 49.3 24.8, 50 24.3 C 50.7 23.7, 51.3 23.4, 52 22.7 C 52.7 22.1, 53.3 21, 54 20.3 C 54.7 19.7, 55.3 19.2, 56 18.9 C 56.7 18.5, 57.3 18.7, 58 18.4 C 58.7 18.1, 59.3 17.5, 60 17.1 C 60.7 16.7, 61.3 16.2, 62 16 C 62.7 15.8, 63.3 16.1, 64 16.1 C 64.7 16.1, 65.3 16.1, 66 16 C 66.7 15.9, 67.3 15.8, 68 15.8 C 68.7 15.8, 69.3 15.9, 70 15.9 C 70.7 15.9, 71.3 15.9, 72 15.9 C 72.7 15.9, 73.3 16.3, 74 16.1 C 74.7 16, 75.3 15.4, 76 14.9 C 76.7 14.4, 77.3 13.6, 78 13 C 78.7 12.5, 79.3 12.1, 80 11.8 C 80.7 11.4, 81.3 11.1, 82 11 C 82.7 10.8, 83.3 10.9, 84 10.8 C 84.7 10.8, 85.3 10.8, 86 10.8 C 86.7 10.8, 87.3 11, 88 10.8 C 88.7 10.7, 89.3 10.3, 90 10 C 90.7 9.7, 91.3 9.2, 92 9 C 92.7 8.9, 93.3 9, 94 9 C 94.7 9, 95.3 8.8, 96 8.9 C 96.7 9.1, 97.3 10.1, 98 10 C 98.7 9.8, 99.3 8.4, 100 7.9 C 100.7 7.3, 101.3 7, 102 6.6 C 102.7 6.2, 103.3 5.7, 104 5.5 C 104.7 5.4, 105.3 5.7, 106 5.5 C 106.7 5.4, 107.3 4.7, 108 4.6 C 108.7 4.4, 109.3 4.7, 110 4.7 C 110.7 4.7, 111.3 4.7, 112 4.6 C 112.7 4.5, 113.3 4.2, 114 4.1 C 114.7 4, 115.3 4.1, 116 4.1 C 116.7 4.1, 117.3 4, 118 4 C 118.7 4, 119.3 4.1, 120 4.1 C 120.7 4.1, 121.3 4.1, 122 4.1 C 122.7 4.1, 123.3 4.1, 124 4.1 C 124.7 4.1, 125.3 4, 126 4 C 126.7 4, 127.3 4, 128 4 C 128.7 4, 129.3 4, 130 4 C 130.7 4, 131.3 4.1, 132 4.1 C 132.7 4.1, 133.3 4, 134 4 C 134.7 4, 135.3 4, 136 4 C 136.7 4, 137.3 4, 138 4 C 138.7 4, 139.3 4, 140 4 C 140.7 4, 141.3 4, 142 4.1 C 142.7 4.1, 143.3 4.1, 144 4.1 C 144.7 4.1, 145.3 4, 146 4 C 146.7 4, 147.3 4.3, 148 4.4 C 148.7 4.5, 149.3 4.5, 150 4.5 C 150.7 4.5, 151.3 4.6, 152 4.6 C 152.7 4.6, 153.3 4.5, 154 4.5 C 154.7 4.5, 155.3 4.6, 156 4.6 C 156.7 4.6, 157.3 4.6, 158 4.5 C 158.7 4.5, 159.3 4.2, 160 4.5 C 160.7 4.8, 161.3 5.7, 162 6.5 C 162.7 7.4, 163.3 8.8, 164 9.7 C 164.7 10.7, 165.3 11.1, 166 12 C 166.7 12.9, 167.3 14.4, 168 15.2 C 168.7 16, 169.3 16.5, 170 16.7 C 170.7 17, 171.3 16.7, 172 16.7 C 172.7 16.8, 173.3 16.8, 174 17 C 174.7 17.1, 175.3 17.3, 176 17.7 C 176.7 18, 177.3 18.6, 178 19.2 C 178.7 19.7, 179.3 20.2, 180 20.8 C 180.7 21.4, 181.3 22.2, 182 22.9 C 182.7 23.6, 183.3 24.6, 184 25.1 C 184.7 25.7, 185.3 26.1, 186 26.4 C 186.7 26.6, 187.3 26.1, 188 26.7 C 188.7 27.3, 189.3 28.9, 190 29.9 C 190.7 30.9, 191.3 31.5, 192 32.5 C 192.7 33.6, 193.3 35.2, 194 36.1 C 194.7 37.1, 195.3 37.4, 196 38.1 C 196.7 38.8, 197.3 39.6, 198 40.3 C 198.7 41, 199.3 41.7, 200 42.3 C 200.7 42.8, 201.3 43.2, 202 43.4 C 202.7 43.7, 203.3 43.6, 204 43.7 C 204.7 43.8, 205.3 43.6, 206 43.8 C 206.7 44.1, 207.3 44.8, 208 45.3 C 208.7 45.7, 209.3 46.2, 210 46.6 C 210.7 47, 211.3 47.2, 212 47.6 C 212.7 47.9, 213.3 48.2, 214 48.8 C 214.7 49.4, 215.3 50.8, 216 51.2 C 216.7 51.6, 217.3 51.1, 218 51 C 218.7 50.9, 219.3 50.6, 220 50.5 C 220.7 50.5, 221.3 50.7, 222 50.8 C 222.7 50.9, 223.3 51.1, 224 51.2 C 224.7 51.2, 225.3 51.2, 226 51.2 C 226.7 51.2, 227.3 51.3, 228 51.2 C 228.7 51.2, 229.3 51.1, 230 50.8 C 230.7 50.5, 231.3 49.4, 232 49.5 C 232.7 49.6, 233.3 50.6, 234 51.4 C 234.7 52.3, 235.3 53.9, 236 54.6 C 236.7 55.3, 237.3 55.3, 238 55.5 C 238.7 55.7, 239.7 55.7, 240 55.7 L 240 58 L 0 58 Z" stroke="#2a4a35" stroke-width="1.5" fill="#2a4a35" fill-opacity="0.2"/>
</svg>