<svg xmlns="http://www.w3.org/2000/svg" viewBox="0 0 240 60" width="240" height="60">
  <path d="M 0 56 C 0.3 55.5, 1.3 54.1, 2 53.1 C 2.7 52.2, 3.3 51.2, 4 50.3 C 4.7 49.4, 5.3 48.6, 6 47.9 C 6.7 47.3, 7.3 46.5, 8 46.3 C 8.7 46.1, 9.3 47.1, 10 46.8 C 10.7 46.5, 11.3 45.5, 12 44.7 C 12.7 43.8, 13.3 42.6, 14 41.7 C 14.7 40.9, 15.3 39.9, 16 39.5 C 16.7 39, 17.3 39, 18 38.9 C 18.7 38.8, 19.3 39, 20 39 C 20.7 38.9, 21.3 39, 22 38.7 C 22.7 38.5, 23.3 37.6, 24 37.3 C 24.7 37.1, 25.3 37, 26 37.3 C 26.7 37.5, 27.3 38.7, 28 38.8 C 28.7 39, 29.3 38.3, 30 38.2 C 30.7 38.1, 31.3 38.7, 32 38.2 C 32.7 37.7, 33.3 36.3, 34 35.3 C 34.7 34.3, 35.3 33.4, 36 32.2 C 36.7 31.1, 37.3 29.6, 38 28.5 C 38.7 27.3, 39.3 26.3, 40 25.5 C 40.7 24.8, 41.3 24.5, 42 24 C 42.7 23.4, 43.3 23.2, 44 22.3 C 44.7 21.4, 45.3 19.4, 46 18.6 C 46.7 17.7, 47.3 17.4, 48 17.1 C 48.7 16.8, 49.3 16.8, 50 16.7 C 50.7 16.5, 51.3 16.6, 52 16.2 C 52.7 15.9, 53.3 15, 54 14.5 C 54.7 14, 55.3 13.6, 56 13.1 C 56.7 12.6, 57.3 11.7, 58 11.3 C 58.7 11, 59.3 11.2, 60 11 C 60.7 10.8, 61.3 10.3, 62 10.2 C 62.7 10, 63.3 10.2, 64 10.1 C 64.7 9.9, 65.3 9.3, 66 9.3 C 66.7 9.4, 67.3 10.4, 68 10.3 C 68.7 10.2, 69.3 9.1, 70 8.9 C 70.7 8.7, 71.3 9, 72 9.3 C 72.7 9.5, 73.3 9.9, 74 10.2 C 74.7 10.4, 75.3 10.3, 76 10.6 C 76.7 11, 77.3 12, 78 12.2 C 78.7 12.4, 79.3 12.2, 80 11.8 C 80.7 11.4, 81.3 10.3, 82 9.8 C 82.7 9.3, 83.3 8.9, 84 8.6 C 84.7 8.2, 85.3 7.9, 86 7.6 C 86.7 7.4, 87.3 7, 88 7 C 88.7 7, 89.3 7.6, 90 7.6 C 90.7 7.5, 91.3 6.9, 92 6.8 C 92.7 6.6, 93.3 6.8, 94 6.5 C 94.7 6.2, 95.3 5.1, 96 5 C 96.7 4.9, 97.3 5.6, 98 5.8 C 98.7 5.9, 99.3 5.8, 100 5.8 C 100.7 5.7, 101.3 5.3, 102 5.4 C 102.7 5.5, 103.3 6, 104 6.2 C 104.7 6.4, 105.3 6.7, 106 6.7 C 106.7 6.7, 107.3 6.3, 108 6 C 108.7 5.8, 109.3 5.5, 110 5.4 C 110.7 5.3, 111.3 5.4, 112 5.4 C 112.7 5.4, 113.3 5.4, 114 5.4 C 114.7 5.4, 115.3 5.5, 116 5.5 C 116.7 5.5, 117.3 5.5, 118 5.5 C 118.7 5.5, 119.3 5.4, 120 5.4 C 120.7 5.4, 121.3 5.3, 122 5.4 C 122.7 5.4, 123.3 5.6, 124 5.5 C 124.7 5.4, 125.3 4.6, 126 4.7 C 126.7 4.7, 127.3 5.7, 128 5.9 C 128.7 6.1, 129.3 6.1, 130 5.8 C 130.7 5.5, 131.3 4.3, 132 4.1 C 132.7 3.8, 133.3 4.2, 134 4.4 C 134.7 4.6, 135.3 5.2, 136 5.4 C 136.7 5.5, 137.3 5.2, 138 5.3 C 138.7 5.5, 139.3 6, 140 6.2 C 140.7 6.5, 141.3 6.7, 142 6.8 C 142.7 6.8, 143.3 6.4, 144 6.3 C 144.7 6.3, 145.3 6.2, 146 6.3 C 146.7 6.3, 147.3 6.4, 148 6.6 C 148.7 6.7, 149.3 6.4, 150 7 C 150.7 7.5, 151.3 9.3, 152 9.7 C 152.7 10.1, 153.3 9.4, 154 9.3 C 154.7 9.1, 155.3 8.8, 156 8.8 C 156.7 8.7, 157.3 8.9, 158 8.9 C 158.7 8.8, 159.3 8.5, 160 8.3 C 160.7 8.2, 161.3 8, 162 7.8 C 162.7 7.6, 163.3 6.8, 164 7.1 C 164.7 7.4, 165.3 9, 166 9.6 C 166.7 10.2, 167.3 10.6, 168 10.9 C 168.7 11.1, 169.3 10.8, 170 11.1 C 170.7 11.3, 171.3 12.1, 172 12.4 C 172.7 12.7, 173.3 13, 174 12.6 C 174.7 12.2, 175.3 10.8, 176 9.9 C 176.7 9.1, 177.3 8.3, 178 7.8 C 178.7 7.2, 179.3 6.9, 180 6.8 C 180.7 6.6, 181.3 6.9, 182 6.8 C 182.7 6.8, 183.3 6.3, 184 6.4 C 184.7 6.6, 185.3 7.1, 186 7.7 C 186.7 8.3, 187.3 9.4, 188 10 C 188.7 10.7, 189.3 11.3, 190 11.7 C 190.7 12.1, 191.3 12.2, 192 12.5 C 192.7 12.7, 193.3 12.8, 194 13.4 C 194.7 13.9, 195.3 15.1, 196 15.9 C 196.7 16.6, 197.3 17.3, 198 17.8 C 198.7 18.3, 199.3 18.3, 200 19 C 200.7 19.7, 201.3 21, 202 22 C 202.7 23, 203.3 24.6, 204 25.2 C 204.7 25.7, 205.3 25.4, 206 25.5 C 206.7 25.6, 207.3 24.9, 208 25.6 C 208.7 26.4, 209.3 28.9, 210 29.9 C 210.7 30.8, 211.3 30.5, 212 31.3 C 212.7 32, 213.3 33.8, 214 34.3 C 214.7 34.8, 215.3 34.2, 216 34.4 C 216.7 34.5, 217.3 34.7, 218 35.2 C 218.7 35.7, 219.3 36.7, 220 37.4 C 220.7 38.1, 221.3 38.7, 222 39.3 C 222.7 40, 223.3 40.8, 224 41.4 C 224.7 42, 225.3 42.4, 226 42.9 C 226.7 43.4, 227.3 43.7, 228 44.3 C 228.7 44.8, 229.3 45.8, 230 46.2 C 230.7 46.7, 231.3 46.7, 232 47.1 C 232.7 47.4, 233.3 47.6, 234 48.3 C 234.7 49, 235.3 50.3, 236 51.2 C 236.7 52, 237.3 52.7, 238 53.5 C 238.7 54.3, 239.7 55.6, 240 56 L 240 58 L 0 58 Z" stroke="#2a4a35" stroke-width="1.5" fill="#2a4a35" fill-opacity="0.2"/>
</svg>