<svg xmlns="http://www.w3.org/2000/svg" viewBox="0 0 240 60" width="240" height="60">
  <path d="M 0 56 C 0.3 55.9, 1.4 55.5, 2 55.2 C 2.7 55, 3.3 54.8, 4 54.6 C 4.6 54.3, 5.3 54.1, 6 53.9 C 6.7 53.7, 7.3 53.4, 8 53.3 C 8.7 53.3, 9.4 53.6, 10 53.4 C 10.7 53.3, 11.3 52.9, 12 52.6 C 12.6 52.3, 13.3 52.1, 14 51.8 C 14.7 51.6, 15.3 51.3, 16 51 C 16.7 50.6, 17.4 50.2, 18 49.8 C 18.7 49.3, 19.3 48.9, 20 48.4 C 20.6 47.9, 21.3 47.4, 22 46.9 C 22.7 46.5, 23.3 46.2, 24 45.7 C 24.7 45.3, 25.4 44.7, 26 44.2 C 26.7 43.7, 27.3 43.1, 28 42.7 C 28.6 42.3, 29.3 42.1, 30 41.7 C 30.7 41.3, 31.3 40.8, 32 40.3 C 32.7 39.9, 33.4 39.4, 34 39 C 34.7 38.6, 35.3 38.1, 36 37.9 C 36.7 37.7, 37.3 37.7, 38 37.7 C 38.7 37.6, 39.3 37.4, 40 37.5 C 40.7 37.6, 41.4 37.9, 42 38.2 C 42.7 38.5, 43.3 38.7, 44 39.1 C 44.7 39.4, 45.3 39.7, 46 40 C 46.7 40.4, 47.3 40.9, 48 40.9 C 48.7 40.8, 49.4 40, 50 39.7 C 50.7 39.4, 51.3 39.4, 52 39 C 52.7 38.7, 53.3 38.2, 54 37.8 C 54.7 37.4, 55.4 37, 56 36.6 C 56.7 36.2, 57.4 35.8, 58 35.4 C 58.7 34.9, 59.3 34.5, 60 34.1 C 60.7 33.7, 61.3 33.3, 62 32.9 C 62.7 32.5, 63.4 32.2, 64 31.8 C 64.7 31.5, 65.3 31, 66 30.6 C 66.7 30.2, 67.3 29.9, 68 29.7 C 68.7 29.5, 69.3 29.4, 70 29.2 C 70.7 29, 71.4 28.8, 72 28.5 C 72.7 28.2, 73.3 27.9, 74 27.5 C 74.7 27.2, 75.3 26.7, 76 26.4 C 76.7 26.1, 77.3 25.9, 78 25.6 C 78.7 25.2, 79.4 24.9, 80 24.5 C 80.7 24.2, 81.3 23.8, 82 23.5 C 82.7 23.3, 83.3 23.2, 84 22.9 C 84.7 22.6, 85.4 22.1, 86 21.7 C 86.7 21.2, 87.4 20.6, 88 20.1 C 88.7 19.7, 89.3 19.4, 90 19 C 90.7 18.6, 91.3 18, 92 17.7 C 92.7 17.4, 93.4 17.3, 94 17.2 C 94.7 17.2, 95.4 17.4, 96 17.3 C 96.7 17.2, 97.3 17.1, 98 16.5 C 98.7 16, 99.3 14.9, 100 14.2 C 100.7 13.4, 101.4 13, 102 12 C 102.7 11, 103.4 9.3, 104 8.2 C 104.7 7, 105.3 6, 106 5.3 C 106.7 4.7, 107.3 4.2, 108 4.2 C 108.7 4.3, 109.4 5.1, 110 5.7 C 110.7 6.3, 111.4 7.2, 112 7.7 C 112.7 8.2, 113.3 8.3, 114 8.8 C 114.7 9.3, 115.4 10.3, 116 10.7 C 116.7 11.1, 117.4 10.7, 118 11.1 C 118.7 11.5, 119.4 12.6, 120 13 C 120.7 13.3, 121.4 13.2, 122 13.1 C 122.7 13.1, 123.4 13.1, 124 12.6 C 124.7 12, 125.4 10.4, 126 10.1 C 126.7 9.8, 127.3 10.2, 128 10.6 C 128.7 11.1, 129.3 12, 130 12.7 C 130.7 13.4, 131.4 14.4, 132 14.9 C 132.7 15.4, 133.4 15.6, 134 15.8 C 134.7 15.9, 135.3 15.6, 136 15.7 C 136.7 15.7, 137.3 16, 138 16 C 138.7 16, 139.4 15.7, 140 15.7 C 140.7 15.7, 141.4 16.1, 142 16 C 142.7 15.9, 143.3 15.4, 144 15.1 C 144.7 14.7, 145.4 14, 146 14 C 146.7 14, 147.4 14.6, 148 14.9 C 148.7 15.2, 149.4 15.4, 150 15.8 C 150.7 16.2, 151.4 17, 152 17.3 C 152.7 17.7, 153.4 17.6, 154 17.9 C 154.7 18.2, 155.4 18.7, 156 19.2 C 156.7 19.6, 157.4 20, 158.1 20.3 C 158.7 20.7, 159.4 21.1, 160 21.4 C 160.7 21.8, 161.4 22.2, 162 22.5 C 162.7 22.7, 163.4 22.6, 164 22.8 C 164.7 23.1, 165.4 23.5, 166.1 24 C 166.7 24.4, 167.4 25.1, 168 25.5 C 168.7 25.9, 169.4 26, 170 26.3 C 170.7 26.6, 171.4 27.1, 172 27.5 C 172.7 27.9, 173.4 28.5, 174.1 28.8 C 174.7 29.2, 175.4 29.5, 176 29.7 C 176.7 29.9, 177.4 29.8, 178 30.1 C 178.7 30.4, 179.4 31.1, 180 31.6 C 180.7 32, 181.4 32.3, 182 32.7 C 182.7 33.1, 183.4 33.5, 184 33.9 C 184.7 34.3, 185.4 34.6, 186 35 C 186.7 35.4, 187.4 35.9, 188.1 36.3 C 188.7 36.7, 189.4 36.9, 190 37.2 C 190.7 37.6, 191.4 38.1, 192 38.4 C 192.7 38.7, 193.4 38.6, 194 38.9 C 194.7 39.2, 195.4 39.9, 196.1 40.2 C 196.7 40.5, 197.4 40.9, 198 40.7 C 198.7 40.6, 199.4 39.7, 200 39.3 C 200.7 38.8, 201.4 38.4, 202 38.2 C 202.7 37.9, 203.4 37.7, 204.1 37.6 C 204.7 37.6, 205.4 37.6, 206 37.6 C 206.7 37.7, 207.4 37.8, 208 38.1 C 208.7 38.4, 209.4 38.9, 210 39.4 C 210.7 39.8, 211.4 40.5, 212.1 40.9 C 212.7 41.3, 213.4 41.4, 214 41.8 C 214.7 42.1, 215.4 42.6, 216 43 C 216.7 43.4, 217.4 43.9, 218.1 44.3 C 218.7 44.7, 219.4 45.1, 220.1 45.4 C 220.7 45.8, 221.4 46.1, 222 46.5 C 222.7 46.9, 223.4 47.4, 224 47.9 C 224.7 48.4, 225.4 48.9, 226.1 49.3 C 226.7 49.8, 227.4 50.3, 228.1 50.6 C 228.7 51, 229.4 51.3, 230 51.6 C 230.7 51.9, 231.4 52.3, 232 52.6 C 232.7 52.9, 233.4 53.1, 234.1 53.3 C 234.7 53.6, 235.4 53.8, 236.1 54.1 C 236.7 54.4, 237.4 54.8, 238 55.1 C 238.7 55.5, 239.7 55.9, 240 56 L 240 58 L 0 58 Z" stroke="#2a4a35" stroke-width="1.5" fill="#2a4a35" fill-opacity="0.2"/>
</svg>