<svg xmlns="http://www.w3.org/2000/svg" viewBox="0 0 240 60" width="240" height="60">
  <path d="M 0 55.6 C 0.3 55.7, 1.3 56, 2 55.9 C 2.7 55.9, 3.3 55.7, 4 55.5 C 4.7 55.4, 5.3 55.2, 6 55 C 6.7 54.9, 7.3 54.7, 8 54.4 C 8.7 54.1, 9.3 53.5, 10 53.3 C 10.7 53.1, 11.3 53.2, 12 53.2 C 12.7 53.2, 13.3 53.2, 14 53.2 C 14.7 53.2, 15.3 53.1, 16 52.9 C 16.7 52.8, 17.3 52.6, 18 52.5 C 18.7 52.3, 19.3 52.1, 20 51.9 C 20.7 51.6, 21.3 51.1, 22 50.8 C 22.7 50.6, 23.3 50.4, 24 50.1 C 24.7 49.8, 25.3 49.3, 26 49 C 26.7 48.7, 27.3 48.4, 28 48.2 C 28.7 47.9, 29.3 47.7, 30 47.5 C 30.7 47.4, 31.3 47.3, 32 47.1 C 32.7 46.9, 33.3 46.5, 34 46.4 C 34.7 46.3, 35.3 46.8, 36 46.6 C 36.7 46.3, 37.3 45.5, 38 45.1 C 38.7 44.6, 39.3 44.2, 40 43.9 C 40.7 43.6, 41.3 43.5, 42 43.2 C 42.7 43, 43.3 42.6, 44 42.5 C 44.7 42.3, 45.3 42.2, 46 42.2 C 46.7 42.1, 47.3 42.3, 48 42.1 C 48.7 41.9, 49.3 41.2, 50 41 C 50.7 40.7, 51.3 40.9, 52 40.7 C 52.7 40.5, 53.3 40.1, 54 39.9 C 54.7 39.6, 55.3 39.4, 56 39.1 C 56.7 38.7, 57.3 38, 58 37.6 C 58.7 37.3, 59.3 37.1, 60 37 C 60.7 36.8, 61.3 37, 62 36.8 C 62.7 36.5, 63.3 35.9, 64 35.6 C 64.7 35.2, 65.3 34.7, 66 34.5 C 66.7 34.2, 67.3 34.2, 68 34.2 C 68.7 34.1, 69.3 34.4, 70 34.2 C 70.7 34, 71.3 33.2, 72 33.1 C 72.7 33, 73.3 33.5, 74 33.5 C 74.7 33.4, 75.3 33.1, 76 32.8 C 76.7 32.5, 77.3 32.2, 78 31.8 C 78.7 31.5, 79.3 31.2, 80 30.8 C 80.7 30.4, 81.3 29.8, 82 29.4 C 82.7 28.9, 83.3 28.4, 84 28.2 C 84.7 28, 85.3 28.3, 86 28 C 86.7 27.8, 87.3 27.1, 88 26.8 C 88.7 26.6, 89.3 26.8, 90 26.7 C 90.7 26.5, 91.3 26.3, 92 25.8 C 92.7 25.4, 93.3 24.5, 94 23.9 C 94.7 23.4, 95.3 22.9, 96 22.4 C 96.7 21.9, 97.3 21.3, 98 20.9 C 98.7 20.6, 99.3 20.6, 100 20.4 C 100.7 20.3, 101.3 20.1, 102 19.8 C 102.7 19.6, 103.3 19.3, 104 19.1 C 104.7 18.8, 105.3 18.7, 106 18.4 C 106.7 18.2, 107.3 18.1, 108 17.6 C 108.7 17.1, 109.3 16.3, 110 15.6 C 110.7 14.9, 111.3 14.3, 112 13.6 C 112.7 12.9, 113.3 12, 114 11.5 C 114.7 10.9, 115.3 10.7, 116 10.3 C 116.7 9.9, 117.3 9.4, 118 9.1 C 118.7 8.7, 119.3 8.5, 120 8.2 C 120.7 7.9, 121.3 7.5, 122 7.4 C 122.7 7.2, 123.3 7.4, 124 7.2 C 124.7 7, 125.3 6.6, 126 6.2 C 126.7 5.8, 127.3 5.1, 128 4.7 C 128.7 4.4, 129.3 4.3, 130 4.1 C 130.7 4, 131.3 4, 132 4 C 132.7 4, 133.3 4.1, 134 4.1 C 134.7 4.1, 135.3 4.1, 136 4.1 C 136.7 4.2, 137.3 4.2, 138 4.2 C 138.7 4.2, 139.3 4.3, 140 4.3 C 140.7 4.3, 141.3 4.3, 142 4.3 C 142.7 4.3, 143.3 4.3, 144 4.3 C 144.7 4.3, 145.3 4.3, 146 4.3 C 146.7 4.3, 147.3 4.3, 148 4.3 C 148.7 4.2, 149.3 4.2, 150 4.1 C 150.7 4.1, 151.3 4.1, 152 4.1 C 152.7 4.1, 153.3 4, 154 4 C 154.7 4.1, 155.3 4.2, 156 4.4 C 156.7 4.6, 157.3 4.9, 158 5.3 C 158.7 5.7, 159.3 6.1, 160 6.5 C 160.7 7, 161.3 7.6, 162 7.8 C 162.7 8.1, 163.3 8, 164 8.1 C 164.7 8.1, 165.3 8.1, 166 8.1 C 166.7 8.1, 167.3 8.2, 168 8.2 C 168.7 8.3, 169.3 8.4, 170 8.4 C 170.7 8.4, 171.3 8.4, 172 8.5 C 172.7 8.6, 173.3 8.9, 174 9.2 C 174.7 9.6, 175.3 10.2, 176 10.6 C 176.7 11, 177.3 10.9, 178 11.7 C 178.7 12.4, 179.3 13.7, 180 15.2 C 180.7 16.8, 181.3 19.5, 182 21.1 C 182.7 22.6, 183.3 23.2, 184 24.5 C 184.7 25.8, 185.3 27.8, 186 29.1 C 186.7 30.5, 187.3 31.6, 188 32.5 C 188.7 33.4, 189.3 33.8, 190 34.6 C 190.7 35.3, 191.3 36.2, 192 36.7 C 192.7 37.2, 193.3 37.1, 194 37.7 C 194.7 38.2, 195.3 39.2, 196 40 C 196.7 40.7, 197.3 41.5, 198 42.1 C 198.7 42.6, 199.3 42.9, 200 43.3 C 200.7 43.7, 201.3 44.2, 202 44.5 C 202.7 44.9, 203.3 45.2, 204 45.6 C 204.7 45.9, 205.3 46.2, 206 46.5 C 206.7 46.7, 207.3 46.8, 208 47 C 208.7 47.3, 209.3 47.4, 210 47.8 C 210.7 48.2, 211.3 48.8, 212 49.3 C 212.7 49.7, 213.3 50.1, 214 50.5 C 214.7 50.9, 215.3 51.2, 216 51.5 C 216.7 51.8, 217.3 52, 218 52.3 C 218.7 52.5, 219.3 52.8, 220 52.9 C 220.7 53.1, 221.3 53, 222 53 C 222.7 53, 223.3 52.8, 224 52.8 C 224.7 52.8, 225.3 53, 226 53.1 C 226.7 53.2, 227.3 53.3, 228 53.4 C 228.7 53.5, 229.3 53.5, 230 53.7 C 230.7 53.9, 231.3 54.3, 232 54.6 C 232.7 54.9, 233.3 55, 234 55.3 C 234.7 55.5, 235.3 55.8, 236 55.9 C 236.7 56, 237.3 55.7, 238 55.7 C 238.7 55.7, 239.7 55.6, 240 55.6 L 240 58 L 0 58 Z" stroke="#2a4a35" stroke-width="1.5" fill="#2a4a35" fill-opacity="0.2"/>
</svg>