<svg xmlns="http://www.w3.org/2000/svg" viewBox="0 0 240 60" width="240" height="60">
  <path d="M 0 53.4 C 0.3 53.4, 1.3 53.1, 2 53.4 C 2.7 53.6, 3.3 54.5, 4 54.8 C 4.7 55.2, 5.3 56, 6 55.6 C 6.7 55.1, 7.3 53.4, 8 52.3 C 8.7 51.3, 9.3 50.3, 10 49.4 C 10.7 48.5, 11.3 47.7, 12 46.9 C 12.7 46.1, 13.3 45.6, 14 44.8 C 14.7 44, 15.3 43.1, 16 42.3 C 16.7 41.4, 17.3 40.6, 18 39.8 C 18.7 39, 19.3 38.1, 20 37.4 C 20.7 36.7, 21.3 36.3, 22 35.7 C 22.7 35.2, 23.3 34.8, 24 34.2 C 24.7 33.6, 25.3 32.9, 26 32.2 C 26.7 31.5, 27.3 30.8, 28 30 C 28.7 29.3, 29.3 28.5, 30 27.8 C 30.7 27.1, 31.3 26.5, 32 25.9 C 32.7 25.2, 33.3 24.6, 34 23.9 C 34.7 23.2, 35.3 22.4, 36 21.7 C 36.7 21, 37.3 20.3, 38 19.7 C 38.7 19, 39.3 18.5, 40 17.8 C 40.7 17.2, 41.3 16.5, 42 15.9 C 42.7 15.3, 43.3 14.6, 44 14.2 C 44.7 13.7, 45.3 13.6, 46 13.2 C 46.7 12.7, 47.3 12, 48 11.3 C 48.7 10.7, 49.3 10.1, 50 9.5 C 50.7 8.9, 51.3 8.4, 52 7.9 C 52.7 7.4, 53.3 7, 54 6.5 C 54.7 6, 55.3 5.4, 56 5.1 C 56.7 4.7, 57.3 4.4, 58 4.3 C 58.7 4.1, 59.3 4, 60 4.1 C 60.7 4.2, 61.3 4.5, 62 4.9 C 62.7 5.3, 63.3 6, 64 6.6 C 64.7 7.3, 65.3 8.3, 66 8.8 C 66.7 9.3, 67.3 9.6, 68 9.6 C 68.7 9.6, 69.3 8.8, 70 8.8 C 70.7 8.9, 71.3 9.7, 72 9.8 C 72.7 9.9, 73.3 10, 74 9.6 C 74.7 9.3, 75.3 7.9, 76 7.8 C 76.7 7.7, 77.3 8.7, 78 9 C 78.7 9.4, 79.3 9.8, 80 10 C 80.7 10.3, 81.3 10.6, 82 10.7 C 82.7 10.7, 83.3 10.3, 84 10.2 C 84.7 10.1, 85.3 10.3, 86 10.2 C 86.7 10.1, 87.3 9.8, 88 9.7 C 88.7 9.5, 89.3 9.5, 90 9.6 C 90.7 9.6, 91.3 10, 92 10.1 C 92.7 10.3, 93.3 10.5, 94 10.5 C 94.7 10.5, 95.3 10.1, 96 9.9 C 96.7 9.7, 97.3 9.5, 98 9.2 C 98.7 8.9, 99.3 8.6, 100 8.2 C 100.7 7.8, 101.3 7.3, 102 6.8 C 102.7 6.3, 103.3 5.4, 104 5.1 C 104.7 4.9, 105.3 5.3, 106 5.4 C 106.7 5.4, 107.3 5.3, 108 5.4 C 108.7 5.5, 109.3 6, 110 6.2 C 110.7 6.3, 111.3 6.2, 112 6.4 C 112.7 6.6, 113.3 7.3, 114 7.3 C 114.7 7.3, 115.3 6.7, 116 6.4 C 116.7 6.2, 117.3 6.3, 118 5.9 C 118.7 5.6, 119.3 4.6, 120 4.4 C 120.7 4.3, 121.3 4.9, 122 5 C 122.7 5.1, 123.3 5, 124 5 C 124.7 5, 125.3 4.9, 126 5 C 126.7 5.1, 127.3 5.2, 128 5.4 C 128.7 5.6, 129.3 6, 130 6.3 C 130.7 6.5, 131.3 6.5, 132 6.9 C 132.7 7.3, 133.3 7.9, 134 8.5 C 134.7 9.2, 135.3 10.2, 136 10.9 C 136.7 11.6, 137.3 12.1, 138 12.7 C 138.7 13.2, 139.3 13.6, 140 14.2 C 140.7 14.8, 141.3 15.7, 142 16.3 C 142.7 16.9, 143.3 17.3, 144 17.8 C 144.7 18.3, 145.3 18.8, 146 19.3 C 146.7 19.8, 147.3 20.6, 148 20.8 C 148.7 21, 149.3 20.4, 150 20.6 C 150.7 20.7, 151.3 21.5, 152 22 C 152.7 22.4, 153.3 22.8, 154 23.2 C 154.7 23.6, 155.3 24.2, 156 24.4 C 156.7 24.6, 157.3 24.5, 158 24.6 C 158.7 24.7, 159.3 24.7, 160 25 C 160.7 25.3, 161.3 26, 162 26.4 C 162.7 26.7, 163.3 26.8, 164 27 C 164.7 27.3, 165.3 27.6, 166 27.6 C 166.7 27.7, 167.3 27.4, 168 27.4 C 168.7 27.4, 169.3 27.5, 170 27.6 C 170.7 27.6, 171.3 27.6, 172 27.5 C 172.7 27.4, 173.3 27, 174 27 C 174.7 27, 175.3 27.4, 176 27.5 C 176.7 27.6, 177.3 27.5, 178 27.5 C 178.7 27.5, 179.3 27.5, 180 27.4 C 180.7 27.4, 181.3 27.3, 182 27.2 C 182.7 27, 183.3 26.3, 184 26.5 C 184.7 26.7, 185.3 28.1, 186 28.5 C 186.7 28.8, 187.3 28.6, 188 28.6 C 188.7 28.6, 189.3 28.6, 190 28.6 C 190.7 28.6, 191.3 28.6, 192 28.6 C 192.7 28.6, 193.3 28.6, 194 28.6 C 194.7 28.6, 195.3 28.5, 196 28.5 C 196.7 28.5, 197.3 28.7, 198 28.7 C 198.7 28.7, 199.3 28.4, 200 28.3 C 200.7 28.3, 201.3 28.2, 202 28.4 C 202.7 28.7, 203.3 29.4, 204 29.8 C 204.7 30.3, 205.3 30.4, 206 30.8 C 206.7 31.2, 207.3 31.7, 208 32.3 C 208.7 32.8, 209.3 33.7, 210 34 C 210.7 34.4, 211.3 34.1, 212 34.3 C 212.7 34.6, 213.3 35.2, 214 35.5 C 214.7 35.8, 215.3 36.1, 216 36.3 C 216.7 36.5, 217.3 36.7, 218 36.9 C 218.7 37.1, 219.3 37.2, 220 37.6 C 220.7 38, 221.3 38.7, 222 39.3 C 222.7 39.8, 223.3 40.3, 224 40.9 C 224.7 41.5, 225.3 42.3, 226 42.9 C 226.7 43.6, 227.3 44.1, 228 44.7 C 228.7 45.4, 229.3 46.4, 230 47 C 230.7 47.5, 231.3 47.9, 232 48.2 C 232.7 48.6, 233.3 48.7, 234 49.1 C 234.7 49.4, 235.3 49.7, 236 50.3 C 236.7 50.9, 237.3 52.2, 238 52.7 C 238.7 53.2, 239.7 53.2, 240 53.3 L 240 58 L 0 58 Z" stroke="#2a4a35" stroke-width="1.5" fill="#2a4a35" fill-opacity="0.2"/>
</svg>