<svg xmlns="http://www.w3.org/2000/svg" viewBox="0 0 240 60" width="240" height="60">
  <path d="M 0 55.7 C 0.3 55.7, 1.3 56.5, 2 55.9 C 2.7 55.3, 3.3 53.6, 4 52.2 C 4.7 50.8, 5.3 49, 6 47.5 C 6.7 46, 7.3 44.4, 8 43.2 C 8.7 41.9, 9.3 40.9, 10 39.8 C 10.7 38.7, 11.3 37.9, 12 36.7 C 12.7 35.5, 13.3 33.9, 14 32.7 C 14.7 31.6, 15.3 30.7, 16 29.8 C 16.7 28.9, 17.3 28.1, 18 27.3 C 18.7 26.6, 19.3 25.8, 20 25.2 C 20.7 24.6, 21.3 24.4, 22 23.7 C 22.7 23, 23.3 21.7, 24 20.9 C 24.7 20.2, 25.3 19.9, 26 19.1 C 26.7 18.4, 27.3 16.8, 28 16.5 C 28.7 16.2, 29.3 16.7, 30 17.3 C 30.7 17.9, 31.3 19.6, 32 20.2 C 32.7 20.7, 33.3 21.1, 34 20.8 C 34.7 20.5, 35.3 18.5, 36 18.3 C 36.7 18.1, 37.3 18.4, 38 19.6 C 38.7 20.8, 39.3 23.7, 40 25.7 C 40.7 27.7, 41.3 30.5, 42 31.5 C 42.7 32.6, 43.3 32, 44 32 C 44.7 31.9, 45.3 31.3, 46 31.4 C 46.7 31.5, 47.3 32.8, 48 32.6 C 48.7 32.3, 49.3 31, 50 29.7 C 50.7 28.5, 51.3 26.6, 52 25.1 C 52.7 23.7, 53.3 22.7, 54 21.2 C 54.7 19.6, 55.3 17.7, 56 16.1 C 56.7 14.5, 57.3 12.3, 58 11.5 C 58.7 10.7, 59.3 11.3, 60 11.1 C 60.7 10.9, 61.3 10.6, 62 10.5 C 62.7 10.3, 63.3 10.2, 64 10.2 C 64.7 10.1, 65.3 10.2, 66 10.2 C 66.7 10.2, 67.3 10, 68 10 C 68.7 10, 69.3 10.2, 70 10.2 C 70.7 10.1, 71.3 9.8, 72 9.7 C 72.7 9.6, 73.3 9.9, 74 9.7 C 74.7 9.6, 75.3 9.2, 76 8.7 C 76.7 8.2, 77.3 7.2, 78 6.7 C 78.7 6.3, 79.3 6.2, 80 6 C 80.7 5.7, 81.3 5.4, 82 5.3 C 82.7 5.2, 83.3 5.3, 84 5.3 C 84.7 5.3, 85.3 5.3, 86 5.2 C 86.7 5.1, 87.3 5, 88 4.9 C 88.7 4.7, 89.3 4.5, 90 4.5 C 90.7 4.6, 91.3 5.3, 92 5.3 C 92.7 5.3, 93.3 4.8, 94 4.6 C 94.7 4.4, 95.3 4.2, 96 4.1 C 96.7 4.1, 97.3 4, 98 4.1 C 98.7 4.3, 99.3 4.7, 100 4.9 C 100.7 5.1, 101.3 5.3, 102 5.4 C 102.7 5.5, 103.3 5.4, 104 5.3 C 104.7 5.3, 105.3 5.4, 106 5.3 C 106.7 5.3, 107.3 5.1, 108 5.1 C 108.7 5.2, 109.3 5.6, 110 5.9 C 110.7 6.1, 111.3 6.4, 112 6.5 C 112.7 6.7, 113.3 6.8, 114 6.9 C 114.7 7, 115.3 6.9, 116 7 C 116.7 7.1, 117.3 7.2, 118 7.5 C 118.7 7.8, 119.3 8.8, 120 9 C 120.7 9.2, 121.3 8.9, 122 8.6 C 122.7 8.3, 123.3 7.6, 124 7.1 C 124.7 6.7, 125.3 6, 126 5.8 C 126.7 5.7, 127.3 5.2, 128 6.4 C 128.7 7.6, 129.3 11.9, 130 13.1 C 130.7 14.3, 131.3 13, 132 13.6 C 132.7 14.2, 133.3 15.8, 134 16.7 C 134.7 17.6, 135.3 19.3, 136 19.1 C 136.7 18.8, 137.3 15.7, 138 15 C 138.7 14.3, 139.3 14.9, 140 14.9 C 140.7 14.8, 141.3 14.7, 142 14.6 C 142.7 14.5, 143.3 14.3, 144 14.2 C 144.7 14, 145.3 13.8, 146 13.7 C 146.7 13.7, 147.3 13.8, 148 13.8 C 148.7 13.8, 149.3 13.8, 150 13.8 C 150.7 13.8, 151.3 13.8, 152 13.8 C 152.7 13.8, 153.3 14.1, 154 13.8 C 154.7 13.5, 155.3 12.6, 156 12.1 C 156.7 11.5, 157.3 10.9, 158 10.6 C 158.7 10.4, 159.3 10.6, 160 10.6 C 160.7 10.6, 161.3 10.6, 162 10.6 C 162.7 10.6, 163.3 10.8, 164 10.6 C 164.7 10.5, 165.3 10, 166 9.6 C 166.7 9.2, 167.3 8.8, 168 8.4 C 168.7 8, 169.3 7.7, 170 7.2 C 170.7 6.6, 171.3 5.6, 172 5.3 C 172.7 5, 173.3 5.4, 174 5.4 C 174.7 5.4, 175.3 5.4, 176 5.4 C 176.7 5.5, 177.3 5.5, 178 5.5 C 178.7 5.5, 179.3 5.5, 180 5.5 C 180.7 5.5, 181.3 5.5, 182 5.5 C 182.7 5.5, 183.3 5.7, 184 5.7 C 184.7 5.8, 185.3 5.8, 186 5.8 C 186.7 5.8, 187.3 5.9, 188 5.9 C 188.7 5.9, 189.3 5.9, 190 5.9 C 190.7 6, 191.3 6, 192 6 C 192.7 6, 193.3 6, 194 6 C 194.7 6.1, 195.3 6.1, 196 6.1 C 196.7 6.1, 197.3 6.1, 198 6.2 C 198.7 6.2, 199.3 6.2, 200 6.2 C 200.7 6.2, 201.3 6.3, 202 6.4 C 202.7 6.4, 203.3 5.8, 204 6.6 C 204.7 7.3, 205.3 9.6, 206 10.9 C 206.7 12.3, 207.3 13.4, 208 14.6 C 208.7 15.7, 209.3 16.3, 210 17.6 C 210.7 18.9, 211.3 20.9, 212 22.3 C 212.7 23.7, 213.3 24.5, 214 26 C 214.7 27.6, 215.3 30.3, 216 31.6 C 216.7 32.8, 217.3 32.9, 218 33.3 C 218.7 33.8, 219.3 34.1, 220 34.3 C 220.7 34.5, 221.3 34.3, 222 34.4 C 222.7 34.6, 223.3 34.6, 224 35.4 C 224.7 36.3, 225.3 38.3, 226 39.6 C 226.7 40.8, 227.3 41.6, 228 43.1 C 228.7 44.5, 229.3 47.1, 230 48.3 C 230.7 49.5, 231.3 49.4, 232 50.2 C 232.7 51.1, 233.3 52.6, 234 53.5 C 234.7 54.3, 235.3 55.1, 236 55.4 C 236.7 55.7, 237.3 55.1, 238 55.2 C 238.7 55.2, 239.7 55.6, 240 55.7 L 240 58 L 0 58 Z" stroke="#2a4a35" stroke-width="1.5" fill="#2a4a35" fill-opacity="0.2"/>
</svg>