<svg xmlns="http://www.w3.org/2000/svg" viewBox="0 0 240 60" width="240" height="60">
  <path d="M 0 55.5 C 0.3 55.4, 1.3 55.3, 2 55.3 C 2.7 55.3, 3.3 55.3, 4 55.3 C 4.7 55.3, 5.3 55.3, 6 55.3 C 6.7 55.2, 7.3 55.1, 8 55 C 8.7 54.9, 9.3 54.9, 10 54.9 C 10.7 55, 11.3 55.2, 12 55.2 C 12.7 55.2, 13.3 55.3, 14 55.2 C 14.7 55, 15.3 54.9, 16 54.3 C 16.7 53.8, 17.3 52.5, 18 51.8 C 18.7 51, 19.3 50.1, 20 49.9 C 20.7 49.7, 21.3 50.3, 22 50.5 C 22.7 50.6, 23.3 50.9, 24 50.8 C 24.7 50.7, 25.3 50.1, 26 49.8 C 26.7 49.5, 27.3 49.3, 28 49.2 C 28.7 49.2, 29.3 49.3, 30 49.4 C 30.7 49.4, 31.3 49.4, 32 49.4 C 32.7 49.4, 33.3 49.4, 34 49.4 C 34.7 49.4, 35.3 49.4, 36 49.4 C 36.7 49.4, 37.3 49.4, 38 49.4 C 38.7 49.4, 39.3 49.4, 40 49.4 C 40.7 49.4, 41.3 49.2, 42 49.5 C 42.7 49.7, 43.3 50.8, 44 50.7 C 44.7 50.7, 45.3 49.7, 46 49 C 46.7 48.3, 47.3 47.5, 48 46.5 C 48.7 45.6, 49.3 44.3, 50 43.3 C 50.7 42.4, 51.3 41.8, 52 41.1 C 52.7 40.4, 53.3 39.6, 54 39 C 54.7 38.4, 55.3 37.7, 56 37.4 C 56.7 37.1, 57.3 37.2, 58 37.2 C 58.7 37.2, 59.3 37.6, 60 37.3 C 60.7 37.1, 61.3 36.3, 62 35.7 C 62.7 35, 63.3 34.4, 64 33.6 C 64.7 32.8, 65.3 31.6, 66 30.8 C 66.7 29.9, 67.3 29, 68 28.6 C 68.7 28.2, 69.3 28.4, 70 28.4 C 70.7 28.3, 71.3 28.2, 72 28.3 C 72.7 28.4, 73.3 29.1, 74 29 C 74.7 28.9, 75.3 28.3, 76 27.6 C 76.7 26.9, 77.3 25.3, 78 24.8 C 78.7 24.2, 79.3 24.3, 80 24.1 C 80.7 23.9, 81.3 23.8, 82 23.7 C 82.7 23.5, 83.3 23.5, 84 23.5 C 84.7 23.4, 85.3 23.5, 86 23.4 C 86.7 23.4, 87.3 23.4, 88 23.3 C 88.7 23.3, 89.3 23.2, 90 23.1 C 90.7 22.9, 91.3 22.8, 92 22.5 C 92.7 22.2, 93.3 21.8, 94 21.5 C 94.7 21.2, 95.3 21, 96 20.6 C 96.7 20.1, 97.3 19.9, 98 19 C 98.7 18.1, 99.3 15.6, 100 15.1 C 100.7 14.5, 101.3 16, 102 15.8 C 102.7 15.5, 103.3 14, 104 13.4 C 104.7 12.7, 105.3 12.6, 106 11.7 C 106.7 10.9, 107.3 9.2, 108 8.3 C 108.7 7.3, 109.3 6.6, 110 6 C 110.7 5.4, 111.3 4.7, 112 4.5 C 112.7 4.3, 113.3 4.7, 114 4.8 C 114.7 4.8, 115.3 4.8, 116 4.8 C 116.7 4.8, 117.3 4.7, 118 4.8 C 118.7 4.8, 119.3 4, 120 4.8 C 120.7 5.6, 121.3 8.3, 122 9.5 C 122.7 10.8, 123.3 11.2, 124 12.2 C 124.7 13.2, 125.3 14.2, 126 15.5 C 126.7 16.9, 127.3 18.7, 128 20.5 C 128.7 22.2, 129.3 24.5, 130 25.9 C 130.7 27.3, 131.3 27.7, 132 29 C 132.7 30.3, 133.3 31.8, 134 33.6 C 134.7 35.3, 135.3 38.4, 136 39.3 C 136.7 40.3, 137.3 39.4, 138 39.5 C 138.7 39.5, 139.3 39.5, 140 39.6 C 140.7 39.6, 141.3 39.7, 142 39.7 C 142.7 39.8, 143.3 39.8, 144 39.8 C 144.7 39.9, 145.3 39.9, 146 40 C 146.7 40, 147.3 40.2, 148 40.1 C 148.7 40, 149.3 39.3, 150 39.5 C 150.7 39.7, 151.3 40.4, 152 41.3 C 152.7 42.1, 153.3 44, 154 44.5 C 154.7 45, 155.3 44.1, 156 44.1 C 156.7 44.2, 157.3 44.5, 158 44.9 C 158.7 45.4, 159.3 46.3, 160 46.9 C 160.7 47.5, 161.3 48.1, 162 48.4 C 162.7 48.7, 163.3 48.7, 164 48.8 C 164.7 48.9, 165.3 48.9, 166 48.9 C 166.7 48.8, 167.3 48.8, 168 48.8 C 168.7 48.7, 169.3 48.6, 170 48.6 C 170.7 48.7, 171.3 48.9, 172 48.9 C 172.7 49, 173.3 48.7, 174 48.7 C 174.7 48.8, 175.3 49.3, 176 49.4 C 176.7 49.5, 177.3 49.3, 178 49.5 C 178.7 49.6, 179.3 49.9, 180 50.3 C 180.7 50.7, 181.3 51.7, 182 51.8 C 182.7 52, 183.3 51.2, 184 51.1 C 184.7 51.1, 185.3 51.5, 186 51.5 C 186.7 51.5, 187.3 50.9, 188 50.9 C 188.7 50.9, 189.3 51.3, 190 51.5 C 190.7 51.6, 191.3 51.5, 192 51.7 C 192.7 51.8, 193.3 52, 194 52.6 C 194.7 53.2, 195.3 54.8, 196 55.2 C 196.7 55.7, 197.3 55, 198 55.1 C 198.7 55.1, 199.3 55.4, 200 55.5 C 200.7 55.6, 201.3 56.1, 202 55.6 C 202.7 55.1, 203.3 53.3, 204 52.5 C 204.7 51.8, 205.3 51.3, 206 51 C 206.7 50.8, 207.3 51, 208 51 C 208.7 50.9, 209.3 50.9, 210 50.8 C 210.7 50.7, 211.3 50.3, 212 50.2 C 212.7 50.1, 213.3 50, 214 50.3 C 214.7 50.6, 215.3 51.7, 216 52.1 C 216.7 52.5, 217.3 52.2, 218 52.7 C 218.7 53.2, 219.3 54.7, 220 55.1 C 220.7 55.4, 221.3 54.7, 222 54.8 C 222.7 54.8, 223.3 55.3, 224 55.4 C 224.7 55.6, 225.3 55.6, 226 55.5 C 226.7 55.4, 227.3 55.2, 228 55.1 C 228.7 54.9, 229.3 54.7, 230 54.7 C 230.7 54.7, 231.3 55.1, 232 55.1 C 232.7 55.1, 233.3 54.6, 234 54.6 C 234.7 54.7, 235.3 55.1, 236 55.3 C 236.7 55.5, 237.3 55.9, 238 55.9 C 238.7 55.9, 239.7 55.3, 240 55.2 L 240 58 L 0 58 Z" stroke="#2a4a35" stroke-width="1.5" fill="#2a4a35" fill-opacity="0.2"/>
</svg>