<svg xmlns="http://www.w3.org/2000/svg" viewBox="0 0 240 60" width="240" height="60">
  <path d="M 0 56 C 0.3 56, 1.3 55.9, 2 55.7 C 2.7 55.5, 3.3 55.1, 4 54.8 C 4.6 54.5, 5.3 54.4, 6 54 C 6.7 53.7, 7.3 53.1, 8 52.6 C 8.7 52.2, 9.3 51.9, 10 51.5 C 10.7 51, 11.3 50.5, 12 50 C 12.7 49.6, 13.3 49.1, 14 48.8 C 14.7 48.4, 15.3 48.4, 16 48.1 C 16.7 47.7, 17.4 47.1, 18 46.7 C 18.7 46.3, 19.3 46, 20 45.6 C 20.7 45.3, 21.3 44.9, 22 44.5 C 22.7 44.1, 23.3 43.7, 24 43.3 C 24.7 42.9, 25.4 42.6, 26 42.2 C 26.7 41.7, 27.3 41.3, 28 40.9 C 28.7 40.4, 29.3 40, 30 39.6 C 30.7 39.2, 31.4 38.7, 32 38.2 C 32.7 37.8, 33.3 37.4, 34 37 C 34.7 36.5, 35.3 36, 36 35.5 C 36.7 35.1, 37.3 34.7, 38 34.2 C 38.7 33.8, 39.4 33.2, 40 32.8 C 40.7 32.4, 41.3 32.2, 42 32 C 42.7 31.9, 43.3 32.1, 44 32.1 C 44.7 32.1, 45.3 32.1, 46 32.1 C 46.7 32.1, 47.4 32.1, 48 32.1 C 48.7 32, 49.3 31.9, 50 31.9 C 50.7 31.8, 51.3 31.7, 52 31.6 C 52.7 31.5, 53.3 31.4, 54 31.4 C 54.7 31.3, 55.4 31.3, 56 31.3 C 56.7 31.3, 57.3 31.3, 58 31.2 C 58.7 31.2, 59.3 31.2, 60 31.1 C 60.7 31.1, 61.4 30.9, 62 30.8 C 62.7 30.7, 63.3 30.6, 64 30.4 C 64.7 30.2, 65.3 30, 66 29.8 C 66.7 29.5, 67.3 29, 68 28.8 C 68.7 28.6, 69.4 28.6, 70 28.5 C 70.7 28.4, 71.3 28.4, 72 28.2 C 72.7 28, 73.3 27.6, 74 27.3 C 74.7 27.1, 75.3 26.8, 76 26.5 C 76.7 26.1, 77.4 25.6, 78 25.2 C 78.7 24.8, 79.3 24.5, 80 24.1 C 80.7 23.7, 81.3 23.4, 82 23 C 82.7 22.6, 83.3 22.2, 84 21.8 C 84.7 21.4, 85.4 20.9, 86 20.5 C 86.7 20.1, 87.3 19.7, 88 19.3 C 88.7 19, 89.3 18.5, 90 18.2 C 90.7 17.9, 91.4 17.7, 92 17.4 C 92.7 17.1, 93.3 16.7, 94 16.4 C 94.7 16, 95.3 15.4, 96 15.5 C 96.7 15.5, 97.3 16.6, 98 16.7 C 98.7 16.7, 99.4 16.1, 100 15.7 C 100.7 15.3, 101.3 14.8, 102 14.4 C 102.7 14, 103.3 13.5, 104 13.2 C 104.7 12.9, 105.4 12.8, 106 12.5 C 106.7 12.2, 107.4 11.8, 108 11.4 C 108.7 11, 109.3 10.6, 110 10.3 C 110.7 9.9, 111.3 9.6, 112 9.3 C 112.7 9, 113.4 8.7, 114 8.5 C 114.7 8.3, 115.4 8.2, 116 7.9 C 116.7 7.7, 117.3 7.4, 118 7.1 C 118.7 6.9, 119.3 6.6, 120 6.5 C 120.7 6.4, 121.4 6.7, 122 6.6 C 122.7 6.5, 123.3 6.1, 124 6 C 124.7 5.9, 125.3 5.9, 126 5.7 C 126.7 5.5, 127.4 5.2, 128 4.9 C 128.7 4.7, 129.4 4.3, 130 4.2 C 130.7 4.1, 131.3 4.3, 132 4.4 C 132.7 4.4, 133.3 4.5, 134 4.5 C 134.7 4.5, 135.4 4.6, 136 4.6 C 136.7 4.7, 137.4 4.6, 138 4.7 C 138.7 4.8, 139.3 4.9, 140 5.1 C 140.7 5.3, 141.3 5.7, 142 5.9 C 142.7 6.2, 143.4 6.3, 144 6.4 C 144.7 6.6, 145.4 6.7, 146 6.8 C 146.7 7, 147.3 7.1, 148 7.2 C 148.7 7.4, 149.4 7.5, 150 7.8 C 150.7 8.1, 151.4 8.5, 152 8.9 C 152.7 9.2, 153.3 9.5, 154 9.8 C 154.7 10.2, 155.3 10.5, 156 10.8 C 156.7 11.2, 157.4 11.6, 158 12 C 158.7 12.5, 159.4 12.9, 160 13.4 C 160.7 13.8, 161.3 14.2, 162 14.6 C 162.7 15, 163.3 15.3, 164 15.7 C 164.7 16.1, 165.4 16.5, 166 17 C 166.7 17.4, 167.4 17.8, 168 18.2 C 168.7 18.6, 169.3 19, 170 19.4 C 170.7 19.9, 171.4 20.4, 172 20.9 C 172.7 21.4, 173.4 22, 174 22.5 C 174.7 23.1, 175.4 23.7, 176 24.2 C 176.7 24.7, 177.4 25, 178 25.5 C 178.7 25.9, 179.4 26.5, 180 27 C 180.7 27.6, 181.4 28.1, 182 28.6 C 182.7 29.2, 183.3 29.7, 184 30.3 C 184.7 30.8, 185.4 31.4, 186 31.9 C 186.7 32.4, 187.4 32.9, 188 33.4 C 188.7 33.9, 189.4 34.4, 190 34.7 C 190.7 35, 191.4 35.2, 192 35.2 C 192.7 35.3, 193.4 35.1, 194 35.1 C 194.7 35, 195.4 35.1, 196 35.1 C 196.7 35.1, 197.4 35.1, 198 35.1 C 198.7 35.1, 199.4 35, 200 35.1 C 200.7 35.2, 201.4 35.7, 202 35.8 C 202.7 35.8, 203.4 35.4, 204 35.5 C 204.7 35.5, 205.4 35.9, 206 36.3 C 206.7 36.7, 207.4 37.3, 208 37.6 C 208.7 37.9, 209.4 38, 210 38.4 C 210.7 38.7, 211.4 39.2, 212 39.7 C 212.7 40.1, 213.4 40.6, 214 41.1 C 214.7 41.5, 215.4 42.1, 216 42.6 C 216.7 43, 217.4 43.6, 218 43.8 C 218.7 44.1, 219.4 43.8, 220 44 C 220.7 44.2, 221.4 44.5, 222 44.9 C 222.7 45.2, 223.4 45.6, 224 46.1 C 224.7 46.6, 225.4 47.3, 226 47.7 C 226.7 48.2, 227.4 48.4, 228 48.9 C 228.7 49.3, 229.4 50, 230 50.5 C 230.7 51, 231.4 51.5, 232 51.9 C 232.7 52.4, 233.4 52.8, 234 53.3 C 234.7 53.7, 235.4 54.1, 236.1 54.5 C 236.7 54.8, 237.4 55.1, 238 55.4 C 238.7 55.6, 239.7 55.7, 240 55.7 L 240 58 L 0 58 Z" stroke="#2a4a35" stroke-width="1.5" fill="#2a4a35" fill-opacity="0.2"/>
</svg>