<svg xmlns="http://www.w3.org/2000/svg" viewBox="0 0 240 60" width="240" height="60">
  <path d="M 0 55.4 C 0.3 55.5, 1.4 55.7, 2 55.7 C 2.7 55.7, 3.3 55.5, 4 55.5 C 4.7 55.5, 5.3 55.7, 6 55.6 C 6.7 55.6, 7.4 55.3, 8 55.2 C 8.7 55, 9.3 54.7, 10 54.5 C 10.7 54.4, 11.3 54.6, 12 54.4 C 12.7 54.3, 13.3 53.7, 14 53.5 C 14.6 53.4, 15.3 53.4, 16 53.6 C 16.7 53.9, 17.3 55.1, 18 55.1 C 18.7 55.2, 19.3 54.1, 20 53.8 C 20.7 53.4, 21.3 53.2, 22 53.1 C 22.7 53, 23.4 53.2, 24 53.4 C 24.7 53.6, 25.3 54.2, 26 54.2 C 26.7 54.1, 27.3 53.8, 28 53.3 C 28.7 52.9, 29.4 52.1, 30 51.5 C 30.7 50.9, 31.3 50.4, 32 49.7 C 32.7 49.1, 33.3 48.4, 34 47.4 C 34.7 46.5, 35.4 45, 36 43.9 C 36.7 42.8, 37.3 41.9, 38 40.8 C 38.7 39.6, 39.3 38.3, 40 37.1 C 40.7 35.8, 41.3 34.2, 42 33.1 C 42.7 32.1, 43.3 31.4, 44 30.6 C 44.7 29.8, 45.4 28.9, 46 28.2 C 46.7 27.4, 47.3 26.5, 48 26 C 48.7 25.5, 49.3 24.7, 50 24.9 C 50.7 25.1, 51.4 26.4, 52 27.3 C 52.7 28.1, 53.3 29, 54 30 C 54.7 31, 55.3 32.3, 56 33.1 C 56.7 33.9, 57.4 34.6, 58 34.8 C 58.7 34.9, 59.3 34.5, 60 34.1 C 60.7 33.7, 61.3 32.7, 62 32.3 C 62.7 31.9, 63.4 31.3, 64 31.4 C 64.7 31.5, 65.3 32.7, 66 33 C 66.7 33.4, 67.4 33.4, 68 33.3 C 68.7 33.3, 69.3 32.9, 70 32.8 C 70.7 32.6, 71.3 32.3, 72 32.4 C 72.7 32.5, 73.4 33, 74 33.4 C 74.7 33.7, 75.3 34.2, 76 34.4 C 76.7 34.7, 77.3 34.7, 78 34.7 C 78.7 34.7, 79.4 34.8, 80 34.4 C 80.7 34, 81.3 32.9, 82 32.3 C 82.7 31.7, 83.3 31.4, 84 31 C 84.7 30.6, 85.4 30.3, 86 29.9 C 86.7 29.5, 87.3 29.2, 88 28.8 C 88.7 28.4, 89.3 28.2, 90 27.8 C 90.7 27.4, 91.4 27, 92 26.5 C 92.7 25.9, 93.3 25.1, 94 24.5 C 94.7 23.9, 95.4 23.5, 96 22.8 C 96.7 22.1, 97.3 20.6, 98 20.2 C 98.7 19.7, 99.3 20.1, 100 20.1 C 100.7 20.1, 101.4 20.2, 102 20.1 C 102.7 19.9, 103.3 19.3, 104 19.2 C 104.7 19, 105.3 19.2, 106 19.3 C 106.7 19.4, 107.4 20.1, 108 19.9 C 108.7 19.6, 109.3 18.6, 110 17.9 C 110.7 17.2, 111.4 16.4, 112 15.5 C 112.7 14.6, 113.4 13.6, 114 12.7 C 114.7 11.8, 115.3 11.1, 116 10.2 C 116.7 9.4, 117.4 8.7, 118 7.8 C 118.7 6.9, 119.4 5.5, 120 4.9 C 120.7 4.4, 121.4 4.6, 122 4.6 C 122.7 4.6, 123.4 4.6, 124 5.1 C 124.7 5.7, 125.3 7, 126 7.8 C 126.7 8.7, 127.3 9.5, 128 10.3 C 128.7 11.2, 129.4 12.1, 130 13 C 130.7 13.9, 131.3 15, 132 15.8 C 132.7 16.7, 133.4 17.5, 134 18.2 C 134.7 18.9, 135.4 19.9, 136 20.1 C 136.7 20.2, 137.3 19.1, 138 19 C 138.7 18.9, 139.4 19.2, 140 19.4 C 140.7 19.6, 141.4 20, 142 20.1 C 142.7 20.2, 143.4 19.9, 144 20 C 144.7 20.1, 145.4 20.1, 146 20.7 C 146.7 21.3, 147.3 22.6, 148 23.3 C 148.7 24.1, 149.3 24.7, 150 25.3 C 150.7 25.8, 151.4 26.3, 152 26.8 C 152.7 27.3, 153.3 27.7, 154 28 C 154.7 28.4, 155.4 28.6, 156 29 C 156.7 29.3, 157.4 29.9, 158 30.2 C 158.7 30.6, 159.3 30.7, 160 31.2 C 160.7 31.7, 161.4 32.5, 162 33.1 C 162.7 33.6, 163.4 34.4, 164 34.7 C 164.7 34.9, 165.4 34.9, 166 34.7 C 166.7 34.5, 167.4 34, 168 33.7 C 168.7 33.3, 169.4 32.7, 170.1 32.5 C 170.7 32.3, 171.4 32.4, 172 32.5 C 172.7 32.7, 173.4 33.3, 174 33.4 C 174.7 33.5, 175.3 33.7, 176 33.4 C 176.7 33.2, 177.4 32.2, 178 31.9 C 178.7 31.7, 179.4 31.8, 180 32 C 180.7 32.2, 181.4 32.9, 182 33.3 C 182.7 33.8, 183.4 34.5, 184 34.6 C 184.7 34.7, 185.4 34.3, 186 33.8 C 186.7 33.2, 187.4 32.2, 188 31.3 C 188.7 30.4, 189.4 29.4, 190 28.5 C 190.7 27.5, 191.4 26.4, 192.1 25.7 C 192.7 25.1, 193.4 24.1, 194 24.4 C 194.7 24.8, 195.4 26.8, 196 27.8 C 196.7 28.9, 197.4 29.5, 198.1 30.6 C 198.7 31.8, 199.4 32.9, 200 34.5 C 200.7 36.1, 201.4 38.9, 202 40.3 C 202.7 41.7, 203.4 42.1, 204 43 C 204.7 44, 205.4 44.9, 206 46 C 206.7 47, 207.4 48.4, 208 49.2 C 208.7 50.1, 209.4 50.6, 210 51.3 C 210.7 51.9, 211.4 52.6, 212 53 C 212.7 53.5, 213.4 54, 214.1 54.1 C 214.7 54.2, 215.4 53.7, 216 53.5 C 216.7 53.3, 217.4 53.1, 218 53.1 C 218.7 53.1, 219.4 53.2, 220.1 53.5 C 220.7 53.9, 221.4 55, 222 55.1 C 222.7 55.1, 223.4 54.3, 224 54 C 224.7 53.7, 225.4 53.3, 226.1 53.3 C 226.7 53.4, 227.4 54.2, 228 54.4 C 228.7 54.6, 229.4 54.3, 230.1 54.5 C 230.7 54.6, 231.4 55, 232 55.2 C 232.7 55.3, 233.4 55.6, 234 55.6 C 234.7 55.7, 235.4 55.5, 236.1 55.5 C 236.7 55.5, 237.4 55.7, 238 55.7 C 238.7 55.7, 239.7 55.6, 240 55.5 L 240 58 L 0 58 Z" stroke="#2a4a35" stroke-width="1.5" fill="#2a4a35" fill-opacity="0.2"/>
</svg>