<svg xmlns="http://www.w3.org/2000/svg" viewBox="0 0 240 60" width="240" height="60">
  <path d="M 0 55.2 C 0.3 55, 1.3 54.6, 2 54.3 C 2.7 54, 3.3 53.4, 4 53.3 C 4.7 53.1, 5.3 53.5, 6 53.4 C 6.7 53.2, 7.3 52.8, 8 52.4 C 8.7 51.9, 9.3 51, 10 50.5 C 10.7 50, 11.3 49.8, 12 49.2 C 12.7 48.6, 13.3 47.7, 14 47.1 C 14.7 46.5, 15.3 45.8, 16 45.5 C 16.7 45.2, 17.3 45.6, 18 45.4 C 18.7 45.3, 19.3 44.8, 20 44.7 C 20.7 44.6, 21.3 45.1, 22 45 C 22.7 44.9, 23.3 44.7, 24 44.3 C 24.7 44, 25.3 43.4, 26 43.1 C 26.7 42.7, 27.3 42.6, 28 42.5 C 28.7 42.4, 29.3 42.2, 30 42.2 C 30.7 42.1, 31.3 42.2, 32 42.2 C 32.7 42.2, 33.3 42.1, 34 42 C 34.7 41.8, 35.3 41.7, 36 41.3 C 36.7 40.9, 37.3 40.1, 38 39.4 C 38.7 38.8, 39.3 37.9, 40 37.3 C 40.7 36.7, 41.3 36.5, 42 36 C 42.7 35.4, 43.3 34.7, 44 34.1 C 44.7 33.5, 45.3 32.6, 46 32.2 C 46.7 31.7, 47.3 31.7, 48 31.4 C 48.7 31.2, 49.3 31.2, 50 30.6 C 50.7 30, 51.3 28.7, 52 28 C 52.7 27.4, 53.3 27.2, 54 26.8 C 54.7 26.4, 55.3 26.3, 56 25.7 C 56.7 25, 57.3 23.7, 58 23 C 58.7 22.2, 59.3 21.6, 60 21.3 C 60.7 21.1, 61.3 21.6, 62 21.5 C 62.7 21.3, 63.3 20.7, 64 20.6 C 64.7 20.4, 65.3 21, 66 20.6 C 66.7 20.3, 67.3 18.9, 68 18.4 C 68.7 17.9, 69.3 17.7, 70 17.5 C 70.7 17.4, 71.3 17.5, 72 17.5 C 72.7 17.5, 73.3 17.5, 74 17.5 C 74.7 17.5, 75.3 17.5, 76 17.5 C 76.7 17.5, 77.3 17.5, 78 17.5 C 78.7 17.5, 79.3 17.5, 80 17.5 C 80.7 17.5, 81.3 17.5, 82 17.5 C 82.7 17.5, 83.3 17.5, 84 17.5 C 84.7 17.5, 85.3 17.5, 86 17.5 C 86.7 17.5, 87.3 17.5, 88 17.5 C 88.7 17.6, 89.3 17.7, 90 17.8 C 90.7 17.9, 91.3 18.5, 92 18.1 C 92.7 17.8, 93.3 16.2, 94 15.7 C 94.7 15.1, 95.3 15.3, 96 14.8 C 96.7 14.4, 97.3 13.4, 98 12.7 C 98.7 12, 99.3 11.3, 100 10.7 C 100.7 10, 101.3 9.2, 102 8.6 C 102.7 7.9, 103.3 7.5, 104 6.7 C 104.7 6, 105.3 4.5, 106 4.1 C 106.7 3.6, 107.3 4, 108 4 C 108.7 4, 109.3 4, 110 4 C 110.7 4, 111.3 4, 112 4 C 112.7 4, 113.3 4.1, 114 4.1 C 114.7 4.1, 115.3 4.1, 116 4.1 C 116.7 4.1, 117.3 4.1, 118 4.1 C 118.7 4.1, 119.3 4.1, 120 4.1 C 120.7 4.1, 121.3 4.1, 122 4.1 C 122.7 4.1, 123.3 4.1, 124 4.1 C 124.7 4.1, 125.3 4.1, 126 4 C 126.7 4, 127.3 4.1, 128 4 C 128.7 4, 129.3 4, 130 4 C 130.7 4, 131.3 4, 132 4 C 132.7 4.1, 133.3 4, 134 4 C 134.7 4.1, 135.3 4, 136 4.1 C 136.7 4.2, 137.3 4.3, 138 4.9 C 138.7 5.4, 139.3 7.1, 140 7.3 C 140.7 7.5, 141.3 5.8, 142 6 C 142.7 6.3, 143.3 8.1, 144 8.9 C 144.7 9.7, 145.3 10.1, 146 10.7 C 146.7 11.4, 147.3 12.2, 148 12.9 C 148.7 13.5, 149.3 14, 150 14.8 C 150.7 15.6, 151.3 17, 152 17.9 C 152.7 18.8, 153.3 19.4, 154 20.1 C 154.7 20.8, 155.3 21.8, 156 22.2 C 156.7 22.6, 157.3 22.4, 158 22.5 C 158.7 22.6, 159.3 22.1, 160 22.6 C 160.7 23.1, 161.3 24.8, 162 25.7 C 162.7 26.5, 163.3 27, 164 27.7 C 164.7 28.3, 165.3 28.6, 166 29.5 C 166.7 30.4, 167.3 32.2, 168 33 C 168.7 33.8, 169.3 33.7, 170 34.3 C 170.7 34.8, 171.3 35.9, 172 36.4 C 172.7 36.8, 173.3 36.8, 174 37 C 174.7 37.2, 175.4 37.4, 176 37.5 C 176.7 37.7, 177.3 37.6, 178 37.8 C 178.7 38.1, 179.3 38.6, 180 39.2 C 180.7 39.8, 181.3 40.9, 182 41.6 C 182.7 42.3, 183.3 43.1, 184 43.4 C 184.7 43.7, 185.3 43.5, 186 43.5 C 186.7 43.6, 187.3 43.7, 188 43.6 C 188.7 43.5, 189.4 42.8, 190 42.8 C 190.7 42.7, 191.3 43.1, 192 43.2 C 192.7 43.3, 193.3 43.1, 194 43.3 C 194.7 43.5, 195.3 44.2, 196 44.4 C 196.7 44.6, 197.4 44.4, 198 44.5 C 198.7 44.6, 199.3 44.8, 200 44.9 C 200.7 45, 201.3 44.9, 202 44.9 C 202.7 44.9, 203.3 44.9, 204 44.9 C 204.7 44.8, 205.4 44.8, 206 44.8 C 206.7 44.7, 207.3 44.8, 208 44.8 C 208.7 44.8, 209.3 44.7, 210 44.7 C 210.7 44.7, 211.4 44.8, 212 44.8 C 212.7 44.9, 213.3 44.9, 214 45.1 C 214.7 45.3, 215.3 45.6, 216 46.1 C 216.7 46.6, 217.3 47.7, 218 48.1 C 218.7 48.4, 219.4 48, 220 48.1 C 220.7 48.2, 221.3 48.5, 222 48.7 C 222.7 48.8, 223.3 48.8, 224 49.2 C 224.7 49.5, 225.3 50.5, 226 51 C 226.7 51.4, 227.4 51.4, 228 51.8 C 228.7 52.2, 229.3 52.9, 230 53.4 C 230.7 53.9, 231.3 54.5, 232 54.8 C 232.7 55.1, 233.3 55.1, 234 55.2 C 234.7 55.2, 235.4 55, 236 55.1 C 236.7 55.2, 237.3 55.6, 238 55.8 C 238.7 55.9, 239.7 55.9, 240 56 L 240 58 L 0 58 Z" stroke="#2a4a35" stroke-width="1.5" fill="#2a4a35" fill-opacity="0.2"/>
</svg>