<svg xmlns="http://www.w3.org/2000/svg" viewBox="0 0 240 60" width="240" height="60">
  <path d="M 0 53.2 C 0.3 53.4, 1.3 54.3, 2 54.7 C 2.7 55.1, 3.3 55.5, 4 55.7 C 4.7 55.8, 5.3 56, 6 55.7 C 6.7 55.4, 7.4 54.2, 8 53.7 C 8.7 53.2, 9.4 53.1, 10 52.8 C 10.7 52.5, 11.4 51.9, 12 52 C 12.7 52, 13.3 53, 14 53.1 C 14.6 53.3, 15.3 52.9, 16 52.8 C 16.6 52.6, 17.3 52.7, 18 52.5 C 18.7 52.2, 19.3 51.4, 20 51.2 C 20.7 50.9, 21.3 50.8, 22 51 C 22.7 51.1, 23.3 51.8, 24 52 C 24.7 52.3, 25.3 52.4, 26 52.5 C 26.7 52.5, 27.3 52.3, 28 52.2 C 28.7 52.1, 29.3 52.1, 30 52 C 30.7 52, 31.4 52, 32 51.9 C 32.7 51.8, 33.4 51.4, 34 51.3 C 34.7 51.2, 35.4 51.4, 36 51.1 C 36.7 50.8, 37.4 49.7, 38 49.6 C 38.7 49.5, 39.4 50.2, 40 50.6 C 40.7 51, 41.3 51.7, 42 52 C 42.6 52.4, 43.3 52.8, 44 52.9 C 44.7 52.9, 45.3 52.5, 46 52.2 C 46.7 51.9, 47.3 51.5, 48 51.3 C 48.7 51, 49.3 51, 50 50.7 C 50.7 50.5, 51.3 50, 52 49.8 C 52.7 49.6, 53.3 49.5, 54 49.5 C 54.7 49.5, 55.4 49.9, 56 50 C 56.7 50.1, 57.4 50.1, 58 50 C 58.7 49.9, 59.4 49.6, 60 49.5 C 60.7 49.4, 61.4 49.4, 62 49.5 C 62.7 49.6, 63.4 50, 64 50.1 C 64.7 50.2, 65.4 50.1, 66.1 50 C 66.7 49.9, 67.3 49.5, 68 49.3 C 68.6 49.2, 69.3 49.2, 70 49.2 C 70.7 49.2, 71.3 49.2, 72 49.1 C 72.7 49.1, 73.3 49, 74 49 C 74.7 49, 75.3 49, 76 49.1 C 76.7 49.2, 77.3 49.6, 78 49.8 C 78.7 50, 79.4 50.3, 80 50.4 C 80.7 50.4, 81.4 50.2, 82 50.1 C 82.7 50, 83.4 49.8, 84 49.7 C 84.7 49.5, 85.4 49.3, 86 49.3 C 86.7 49.2, 87.4 49.2, 88 49.1 C 88.7 49.1, 89.4 49.2, 90.1 49.2 C 90.7 49.2, 91.4 49.3, 92.1 49.3 C 92.7 49.3, 93.3 49.3, 94 49.4 C 94.7 49.4, 95.3 49.4, 96 49.5 C 96.7 49.5, 97.3 49.5, 98 49.5 C 98.7 49.6, 99.3 49.6, 100 49.6 C 100.7 49.7, 101.3 49.7, 102 49.7 C 102.7 49.8, 103.4 49.9, 104 50 C 104.7 50.1, 105.4 50.2, 106 50.2 C 106.7 50.3, 107.4 50.3, 108 50.4 C 108.7 50.4, 109.4 50.4, 110 50.5 C 110.7 50.5, 111.4 50.6, 112 50.6 C 112.7 50.6, 113.4 50.7, 114.1 50.7 C 114.7 50.7, 115.4 50.7, 116.1 50.7 C 116.7 50.7, 117.4 50.7, 118.1 50.7 C 118.7 50.7, 119.4 50.7, 120.1 50.7 C 120.7 50.7, 121.3 50.6, 122 50.6 C 122.7 50.6, 123.3 50.7, 124 50.6 C 124.7 50.6, 125.3 50.4, 126 50.3 C 126.7 50.3, 127.4 50.5, 128 50.4 C 128.7 50.3, 129.4 49.9, 130 49.7 C 130.7 49.5, 131.4 49.4, 132 49.2 C 132.7 49.1, 133.4 49, 134 48.7 C 134.7 48.5, 135.4 48.2, 136 47.8 C 136.7 47.3, 137.4 46.6, 138.1 45.9 C 138.7 45.3, 139.4 44.6, 140.1 44.1 C 140.7 43.6, 141.4 43.2, 142.1 43 C 142.7 42.7, 143.4 42.7, 144.1 42.5 C 144.7 42.3, 145.4 41.9, 146.1 41.8 C 146.7 41.7, 147.4 42.1, 148 41.9 C 148.7 41.7, 149.3 40.5, 150 40.5 C 150.7 40.4, 151.4 41.4, 152 41.7 C 152.7 42, 153.4 42.4, 154 42.3 C 154.7 42.2, 155.4 42.1, 156 41.3 C 156.7 40.5, 157.4 38.3, 158 37.3 C 158.7 36.3, 159.4 35.8, 160 35.2 C 160.7 34.6, 161.4 34.1, 162.1 33.9 C 162.7 33.6, 163.4 33.9, 164.1 33.7 C 164.7 33.5, 165.4 33.2, 166.1 32.7 C 166.7 32.2, 167.4 31.6, 168.1 30.9 C 168.7 30.2, 169.4 29.3, 170.1 28.5 C 170.7 27.7, 171.4 26.9, 172.1 26.2 C 172.7 25.4, 173.4 24.8, 174 24 C 174.7 23.2, 175.4 22.2, 176 21.3 C 176.7 20.4, 177.4 19.2, 178 18.6 C 178.7 17.9, 179.4 18, 180 17.5 C 180.7 17, 181.4 16.1, 182 15.5 C 182.7 14.9, 183.4 14.7, 184 13.9 C 184.7 13.1, 185.4 11.9, 186.1 10.9 C 186.7 9.8, 187.4 8.2, 188.1 7.6 C 188.7 7.1, 189.4 7.7, 190.1 7.6 C 190.7 7.5, 191.4 7.2, 192.1 7.1 C 192.7 6.9, 193.4 6.7, 194.1 6.6 C 194.7 6.5, 195.4 6.7, 196.1 6.6 C 196.7 6.6, 197.4 6.4, 198.1 6.2 C 198.8 6.1, 199.4 5.8, 200.1 5.7 C 200.7 5.5, 201.4 5.4, 202 5.3 C 202.7 5.3, 203.4 5.3, 204 5.2 C 204.7 5.2, 205.4 5.1, 206 5 C 206.7 4.9, 207.4 4.8, 208 4.7 C 208.7 4.6, 209.4 4.5, 210.1 4.4 C 210.7 4.3, 211.4 4.2, 212.1 4.1 C 212.7 4.1, 213.4 4, 214.1 4 C 214.7 4, 215.4 4, 216.1 4 C 216.7 4, 217.4 4, 218.1 4 C 218.7 4, 219.4 4, 220.1 4 C 220.7 4, 221.4 4, 222.1 4 C 222.8 4, 223.4 4, 224.1 4 C 224.8 4, 225.4 4, 226.1 4 C 226.8 4, 227.4 4, 228 4 C 228.7 4, 229.4 4, 230 4 C 230.7 4, 231.4 4, 232 4 C 232.7 4, 233.4 4, 234.1 4 C 234.7 4, 235.4 4, 236.1 4 C 236.7 4, 237.4 4, 238.1 4 C 238.7 4, 239.7 4, 240 4 L 240 58 L 0 58 Z" stroke="#2a4a35" stroke-width="1.5" fill="#2a4a35" fill-opacity="0.2"/>
</svg>