<svg xmlns="http://www.w3.org/2000/svg" viewBox="0 0 240 60" width="240" height="60">
  <path d="M 0 55.5 C 0.3 55.5, 1.3 55.5, 2 55.3 C 2.7 55.2, 3.3 54.9, 4 54.4 C 4.7 53.9, 5.3 53.1, 6 52.3 C 6.7 51.5, 7.3 50.6, 8 49.7 C 8.7 48.8, 9.3 47.7, 10 46.9 C 10.7 46.1, 11.3 45.4, 12 44.7 C 12.7 43.9, 13.3 43.1, 14 42.6 C 14.7 42, 15.3 41.9, 16 41.4 C 16.7 40.9, 17.3 40.4, 18 39.7 C 18.7 39, 19.3 37.8, 20 37.4 C 20.7 37.1, 21.3 37.5, 22 37.6 C 22.7 37.7, 23.3 38, 24 38 C 24.7 38.1, 25.3 37.8, 26 37.9 C 26.7 38, 27.3 38.9, 28 38.5 C 28.7 38.2, 29.3 36.7, 30 35.7 C 30.7 34.8, 31.3 33.6, 32 32.6 C 32.7 31.7, 33.3 30.7, 34 29.9 C 34.7 29.2, 35.3 28.8, 36 28.2 C 36.7 27.6, 37.3 27, 38 26.4 C 38.7 25.9, 39.3 25.2, 40 24.9 C 40.7 24.6, 41.3 24.8, 42 24.7 C 42.7 24.7, 43.3 24.9, 44 24.7 C 44.7 24.6, 45.3 24, 46 24 C 46.7 23.9, 47.3 24.6, 48 24.5 C 48.7 24.4, 49.3 23.5, 50 23.1 C 50.7 22.8, 51.3 23, 52 22.3 C 52.7 21.6, 53.3 19.8, 54 18.9 C 54.7 18, 55.3 17, 56 16.7 C 56.7 16.3, 57.3 17.3, 58 17.1 C 58.7 16.8, 59.3 15.9, 60 15.1 C 60.7 14.4, 61.3 13.6, 62 12.6 C 62.7 11.7, 63.3 10.2, 64 9.2 C 64.7 8.3, 65.3 7.6, 66 6.8 C 66.7 6.1, 67.3 5.1, 68 4.9 C 68.7 4.7, 69.3 5.8, 70 5.7 C 70.7 5.7, 71.3 5, 72 4.8 C 72.7 4.7, 73.3 4.8, 74 4.8 C 74.7 4.7, 75.3 4.5, 76 4.5 C 76.7 4.5, 77.3 4.8, 78 4.8 C 78.7 4.8, 79.3 4.9, 80 4.8 C 80.7 4.7, 81.3 4.5, 82 4.5 C 82.7 4.4, 83.3 4.6, 84 4.5 C 84.7 4.5, 85.3 4.4, 86 4.3 C 86.7 4.3, 87.3 4.2, 88 4.4 C 88.7 4.7, 89.3 6, 90 5.9 C 90.7 5.8, 91.3 4.2, 92 4 C 92.7 3.8, 93.3 4.7, 94 4.8 C 94.7 4.9, 95.3 4.6, 96 4.6 C 96.7 4.7, 97.3 4.8, 98 4.9 C 98.7 5.1, 99.3 5.2, 100 5.3 C 100.7 5.3, 101.3 5.3, 102 5.2 C 102.7 5.2, 103.3 5, 104 5.1 C 104.7 5.2, 105.3 5.7, 106 5.8 C 106.7 6, 107.3 5.8, 108 6 C 108.7 6.3, 109.3 7.1, 110 7.3 C 110.7 7.4, 111.3 6.8, 112 6.9 C 112.7 6.9, 113.3 7.2, 114 7.5 C 114.7 7.9, 115.3 8.4, 116 8.9 C 116.7 9.5, 117.3 10.6, 118 10.9 C 118.7 11.2, 119.3 10.7, 120 10.6 C 120.7 10.5, 121.3 10.4, 122 10.3 C 122.7 10.3, 123.3 10.3, 124 10.3 C 124.7 10.4, 125.3 10.9, 126 10.9 C 126.7 10.8, 127.3 10.2, 128 10.3 C 128.7 10.3, 129.3 11.1, 130 11.2 C 130.7 11.2, 131.3 11.4, 132 10.8 C 132.7 10.2, 133.3 8.3, 134 7.8 C 134.7 7.3, 135.3 7.7, 136 7.8 C 136.7 7.9, 137.3 8.5, 138 8.4 C 138.7 8.3, 139.3 7.4, 140 7 C 140.7 6.7, 141.3 6.4, 142 6.3 C 142.7 6.1, 143.3 6.2, 144 6.1 C 144.7 5.9, 145.3 5.3, 146 5.4 C 146.7 5.5, 147.3 6.9, 148 6.7 C 148.7 6.6, 149.3 5, 150 4.6 C 150.7 4.2, 151.3 4.3, 152 4.3 C 152.7 4.3, 153.3 4.3, 154 4.5 C 154.7 4.6, 155.3 5.3, 156 5.2 C 156.7 5.2, 157.3 4.4, 158 4.3 C 158.7 4.2, 159.3 4.5, 160 4.5 C 160.7 4.6, 161.3 4.5, 162 4.5 C 162.7 4.6, 163.3 4.7, 164 4.8 C 164.7 4.8, 165.3 4.4, 166 5 C 166.7 5.6, 167.3 8.1, 168 8.1 C 168.7 8.2, 169.3 5.5, 170 5.4 C 170.7 5.3, 171.3 6.6, 172 7.5 C 172.7 8.3, 173.3 9.7, 174 10.5 C 174.7 11.3, 175.3 11.7, 176 12.3 C 176.7 13, 177.3 14.1, 178 14.7 C 178.7 15.3, 179.3 15.8, 180 16.1 C 180.7 16.3, 181.3 16.3, 182 16.4 C 182.7 16.5, 183.3 16.6, 184 16.8 C 184.7 16.9, 185.3 16.5, 186 17.1 C 186.7 17.7, 187.3 19.8, 188 20.5 C 188.7 21.2, 189.3 21, 190 21.3 C 190.7 21.6, 191.3 22.1, 192 22.4 C 192.7 22.7, 193.3 23, 194 23 C 194.7 23, 195.3 22.4, 196 22.5 C 196.7 22.7, 197.3 23.7, 198 24 C 198.7 24.4, 199.3 24.5, 200 24.6 C 200.7 24.7, 201.3 24.5, 202 24.5 C 202.7 24.6, 203.3 24.8, 204 24.9 C 204.7 24.9, 205.3 24.7, 206 24.8 C 206.7 24.9, 207.3 25, 208 25.6 C 208.7 26.3, 209.3 27.9, 210 28.7 C 210.7 29.5, 211.3 29.3, 212 30.5 C 212.7 31.6, 213.3 34.4, 214 35.7 C 214.7 36.9, 215.3 37.5, 216 37.9 C 216.7 38.3, 217.3 38.1, 218 38.1 C 218.7 38.1, 219.3 37.9, 220 38.1 C 220.7 38.3, 221.3 38.9, 222 39.3 C 222.7 39.8, 223.3 40.4, 224 40.6 C 224.7 40.9, 225.3 40.5, 226 40.9 C 226.7 41.2, 227.3 41.9, 228 42.6 C 228.7 43.3, 229.3 44.4, 230 45.2 C 230.7 46.1, 231.3 47.1, 232 47.8 C 232.7 48.5, 233.3 48.9, 234 49.7 C 234.7 50.5, 235.3 52, 236 52.7 C 236.7 53.4, 237.3 53.3, 238 53.8 C 238.7 54.3, 239.7 55.3, 240 55.6 L 240 58 L 0 58 Z" stroke="#2a4a35" stroke-width="1.5" fill="#2a4a35" fill-opacity="0.2"/>
</svg>