<svg xmlns="http://www.w3.org/2000/svg" viewBox="0 0 240 60" width="240" height="60">
  <path d="M 0 48.5 C 0.3 48.5, 1.3 48.7, 2 48.7 C 2.7 48.7, 3.3 48.5, 4 48.5 C 4.7 48.5, 5.3 48.5, 6 48.5 C 6.7 48.4, 7.3 48.3, 8 48.2 C 8.7 48.2, 9.3 48.3, 10 48.4 C 10.7 48.4, 11.3 48.4, 12 48.3 C 12.7 48.3, 13.3 48.1, 14 48 C 14.7 47.9, 15.3 47.9, 16 47.8 C 16.7 47.8, 17.3 47.9, 18 47.7 C 18.7 47.5, 19.3 46.9, 20 46.5 C 20.7 46.1, 21.3 45.7, 22 45.2 C 22.7 44.7, 23.3 44.4, 24 43.7 C 24.7 43, 25.3 41.6, 26 41.1 C 26.7 40.5, 27.3 40.6, 28 40.4 C 28.7 40.2, 29.3 39.9, 30 39.9 C 30.7 39.9, 31.3 40.3, 32 40.3 C 32.7 40.2, 33.3 40.2, 34 39.7 C 34.7 39.3, 35.3 38.1, 36 37.6 C 36.7 37.1, 37.3 36.7, 38 36.6 C 38.7 36.4, 39.3 36.6, 40 36.5 C 40.7 36.5, 41.3 36.3, 42 36.1 C 42.7 36, 43.3 35.9, 44 35.4 C 44.7 35, 45.3 34.3, 46 33.6 C 46.7 32.9, 47.3 32.2, 48 31.4 C 48.7 30.6, 49.3 29.4, 50 28.7 C 50.7 27.9, 51.3 27.3, 52 26.8 C 52.7 26.4, 53.3 26.4, 54 26 C 54.7 25.5, 55.3 24.8, 56 24.2 C 56.7 23.6, 57.3 22.9, 58 22.4 C 58.7 21.9, 59.3 21.3, 60 20.9 C 60.7 20.6, 61.3 20.1, 62 20.2 C 62.7 20.4, 63.3 21.6, 64 21.9 C 64.7 22.2, 65.3 22, 66 21.9 C 66.7 21.8, 67.3 21.4, 68 21.4 C 68.7 21.4, 69.3 22, 70 21.8 C 70.7 21.7, 71.3 21.1, 72 20.6 C 72.7 20.2, 73.3 19.7, 74 19.3 C 74.7 18.9, 75.3 18.3, 76 17.9 C 76.7 17.6, 77.3 17.3, 78 17 C 78.7 16.7, 79.3 16.4, 80 16.2 C 80.7 16, 81.3 15.9, 82 15.6 C 82.7 15.4, 83.3 15, 84 14.7 C 84.7 14.3, 85.3 13.7, 86 13.5 C 86.7 13.3, 87.3 13.7, 88 13.6 C 88.7 13.5, 89.3 13.1, 90 12.9 C 90.7 12.6, 91.3 12.3, 92 12.3 C 92.7 12.2, 93.3 12.7, 94 12.7 C 94.7 12.7, 95.3 12.4, 96 12.3 C 96.7 12.2, 97.3 12.2, 98 12.3 C 98.7 12.4, 99.3 12.9, 100 12.7 C 100.7 12.5, 101.3 11.1, 102 11 C 102.7 10.9, 103.3 11.8, 104 12.1 C 104.7 12.4, 105.3 12.7, 106 12.9 C 106.7 13.2, 107.3 13.7, 108 13.6 C 108.7 13.5, 109.3 12.9, 110 12.3 C 110.7 11.8, 111.3 10.7, 112 10.5 C 112.7 10.2, 113.3 10.7, 114 10.7 C 114.7 10.7, 115.3 10.5, 116 10.5 C 116.7 10.5, 117.3 10.6, 118 10.7 C 118.7 10.7, 119.3 10.1, 120 10.7 C 120.7 11.3, 121.3 13.4, 122 14.3 C 122.7 15.2, 123.3 16.1, 124 16.3 C 124.7 16.5, 125.3 15.9, 126 15.5 C 126.7 15, 127.3 14.1, 128 13.6 C 128.7 13.2, 129.3 13.6, 130 12.9 C 130.7 12.3, 131.3 10.6, 132 9.8 C 132.7 9, 133.3 8.5, 134 8.4 C 134.7 8.3, 135.3 9.3, 136 9.3 C 136.7 9.3, 137.3 8.6, 138 8.5 C 138.7 8.3, 139.3 8.4, 140 8.4 C 140.7 8.3, 141.3 8.5, 142 8.1 C 142.7 7.7, 143.3 6.5, 144 6.1 C 144.7 5.8, 145.3 6.1, 146 5.9 C 146.7 5.8, 147.3 5.7, 148 5.4 C 148.7 5.2, 149.3 4.7, 150 4.5 C 150.7 4.3, 151.3 4.5, 152 4.5 C 152.7 4.5, 153.3 4.7, 154 4.7 C 154.7 4.6, 155.3 4.3, 156 4.2 C 156.7 4.2, 157.3 4.4, 158 4.4 C 158.7 4.4, 159.3 4.3, 160 4.2 C 160.7 4.2, 161.3 3.7, 162 4.1 C 162.7 4.4, 163.3 5.6, 164 6.3 C 164.7 6.9, 165.3 7.6, 166 8.1 C 166.7 8.6, 167.3 9.1, 168 9.2 C 168.7 9.3, 169.3 9, 170 8.9 C 170.7 8.7, 171.3 8.1, 172 8.3 C 172.7 8.4, 173.3 9, 174 9.8 C 174.7 10.7, 175.3 12.5, 176 13.3 C 176.7 14.1, 177.3 14.1, 178 14.8 C 178.7 15.5, 179.3 17.3, 180 17.6 C 180.7 17.9, 181.3 16.2, 182 16.4 C 182.7 16.5, 183.3 17.8, 184 18.4 C 184.7 19, 185.3 19.4, 186 20.1 C 186.7 20.9, 187.3 21.9, 188 22.8 C 188.7 23.8, 189.3 24.8, 190 25.7 C 190.7 26.6, 191.3 27.5, 192 28.1 C 192.7 28.7, 193.3 29, 194 29.2 C 194.7 29.5, 195.3 29.3, 196 29.6 C 196.7 29.9, 197.3 30.6, 198 31 C 198.7 31.5, 199.3 31.6, 200 32.1 C 200.7 32.7, 201.3 33.5, 202 34.3 C 202.7 35.1, 203.3 36.3, 204 36.7 C 204.7 37.2, 205.3 36.9, 206 37 C 206.7 37.1, 207.3 36.9, 208 37.5 C 208.7 38.1, 209.3 39.6, 210 40.6 C 210.7 41.6, 211.3 42.3, 212 43.4 C 212.7 44.4, 213.3 45.7, 214 46.7 C 214.7 47.7, 215.3 48.8, 216 49.4 C 216.7 50.1, 217.3 50.2, 218 50.6 C 218.7 51, 219.3 51.3, 220 51.8 C 220.7 52.2, 221.3 53, 222 53.3 C 222.7 53.6, 223.3 53.5, 224 53.7 C 224.7 54, 225.3 54.6, 226 54.9 C 226.7 55.3, 227.3 55.8, 228 55.9 C 228.7 56, 229.3 55.5, 230 55.3 C 230.7 55, 231.3 54.9, 232 54.4 C 232.7 53.9, 233.3 52.9, 234 52.2 C 234.7 51.6, 235.3 50.9, 236 50.4 C 236.7 49.8, 237.3 49.4, 238 49.1 C 238.7 48.8, 239.7 48.7, 240 48.6 L 240 58 L 0 58 Z" stroke="#2a4a35" stroke-width="1.5" fill="#2a4a35" fill-opacity="0.2"/>
</svg>