<svg xmlns="http://www.w3.org/2000/svg" viewBox="0 0 240 60" width="240" height="60">
  <path d="M 0 51.7 C 0.3 51.7, 1.3 52, 2 52 C 2.7 52.1, 3.3 52.2, 4 52 C 4.7 51.9, 5.3 51.6, 6 51.2 C 6.7 50.7, 7.3 50, 8 49.4 C 8.7 48.7, 9.3 47.9, 10 47.2 C 10.7 46.6, 11.3 45.8, 12 45.3 C 12.7 44.8, 13.3 44.5, 14 44.2 C 14.7 43.8, 15.3 43.7, 16 43.2 C 16.7 42.7, 17.3 41.7, 18 41.1 C 18.7 40.5, 19.3 39.9, 20 39.6 C 20.7 39.4, 21.3 40, 22 39.6 C 22.7 39.2, 23.3 38.2, 24 37.4 C 24.7 36.7, 25.3 35.8, 26 35.1 C 26.7 34.4, 27.3 33.7, 28 33.1 C 28.7 32.5, 29.3 32.2, 30 31.6 C 30.7 31, 31.3 30.2, 32 29.5 C 32.7 28.9, 33.3 28.3, 34 27.8 C 34.7 27.3, 35.3 27, 36 26.5 C 36.7 25.9, 37.3 25.2, 38 24.6 C 38.7 23.9, 39.3 22.9, 40 22.7 C 40.7 22.4, 41.3 22.9, 42 23 C 42.7 23.1, 43.3 23.3, 44 23.1 C 44.7 23, 45.3 22.5, 46 22.2 C 46.7 21.8, 47.3 21.4, 48 21.1 C 48.7 20.8, 49.3 20.7, 50 20.3 C 50.7 19.9, 51.3 19.4, 52 18.9 C 52.7 18.3, 53.3 17.6, 54 17.1 C 54.7 16.5, 55.3 15.9, 56 15.5 C 56.7 15.2, 57.3 15.2, 58 15.1 C 58.7 15.1, 59.3 15.2, 60 15.2 C 60.7 15.2, 61.3 15.2, 62 15.2 C 62.7 15.2, 63.3 15.2, 64 15.3 C 64.7 15.3, 65.3 15.3, 66 15.3 C 66.7 15.2, 67.3 15, 68 14.8 C 68.7 14.6, 69.3 14.3, 70 13.9 C 70.7 13.5, 71.3 12.8, 72 12.4 C 72.7 11.9, 73.3 11.5, 74 11.1 C 74.7 10.7, 75.3 10.4, 76 10.2 C 76.7 10, 77.3 9.9, 78 9.8 C 78.7 9.7, 79.3 9.4, 80 9.7 C 80.7 10, 81.3 11.1, 82 11.4 C 82.7 11.7, 83.3 11.6, 84 11.5 C 84.7 11.3, 85.3 10.8, 86 10.6 C 86.7 10.4, 87.3 10.5, 88 10.3 C 88.7 10, 89.3 9.5, 90 9.1 C 90.7 8.7, 91.3 8.4, 92 7.8 C 92.7 7.3, 93.3 6.4, 94 5.9 C 94.7 5.4, 95.3 5.2, 96 5 C 96.7 4.9, 97.3 4.9, 98 4.9 C 98.7 4.9, 99.3 4.9, 100 4.9 C 100.7 4.9, 101.3 4.7, 102 4.9 C 102.7 5.1, 103.3 5.8, 104 6.2 C 104.7 6.7, 105.3 7.3, 106 7.6 C 106.7 8, 107.3 8.2, 108 8.2 C 108.7 8.1, 109.3 7.4, 110 7.2 C 110.7 7.1, 111.3 7.3, 112 7.1 C 112.7 7, 113.3 6.6, 114 6.3 C 114.7 6, 115.3 5.1, 116 5.2 C 116.7 5.3, 117.3 6.3, 118 6.9 C 118.7 7.6, 119.3 8.3, 120 9 C 120.7 9.8, 121.3 11, 122 11.5 C 122.7 12, 123.3 11.9, 124 12 C 124.7 12.1, 125.3 12.2, 126 12.2 C 126.7 12.2, 127.3 12, 128 12.2 C 128.7 12.3, 129.3 13.2, 130 13.1 C 130.7 12.9, 131.3 11.4, 132 11.2 C 132.7 11.1, 133.3 11.8, 134 12 C 134.7 12.2, 135.3 12.5, 136 12.5 C 136.7 12.6, 137.3 12.4, 138 12.2 C 138.7 12, 139.3 11.6, 140 11.4 C 140.7 11.1, 141.3 10.9, 142 10.5 C 142.7 10.2, 143.3 9.3, 144 9.2 C 144.7 9.1, 145.3 9.6, 146 10 C 146.7 10.4, 147.3 11.4, 148 11.7 C 148.7 12, 149.3 12.1, 150 11.9 C 150.7 11.7, 151.3 10.7, 152 10.4 C 152.7 10.2, 153.3 10, 154 10.2 C 154.7 10.3, 155.3 11.3, 156 11.2 C 156.7 11.2, 157.3 10.3, 158 9.9 C 158.7 9.5, 159.3 9.1, 160 8.6 C 160.7 8.1, 161.3 7.3, 162 6.7 C 162.7 6.1, 163.3 5.4, 164 5 C 164.7 4.6, 165.3 4.3, 166 4.1 C 166.7 4, 167.3 4.1, 168 4.2 C 168.7 4.2, 169.3 4.2, 170 4.2 C 170.7 4.2, 171.3 4.2, 172 4.2 C 172.7 4.2, 173.3 4.2, 174 4.2 C 174.7 4.2, 175.3 4.1, 176 4.1 C 176.7 4, 177.3 3.7, 178 4 C 178.7 4.3, 179.3 5.3, 180 6.1 C 180.7 6.8, 181.3 7.4, 182 8.3 C 182.7 9.1, 183.3 10.3, 184 11.2 C 184.7 12, 185.3 12.7, 186 13.3 C 186.7 13.8, 187.3 14.1, 188 14.7 C 188.7 15.2, 189.3 15.8, 190 16.5 C 190.7 17.2, 191.3 18, 192 18.9 C 192.7 19.7, 193.3 20.6, 194 21.6 C 194.7 22.5, 195.3 24, 196 24.8 C 196.7 25.5, 197.3 25.5, 198 26.3 C 198.7 27, 199.3 28.2, 200 29.1 C 200.7 29.9, 201.3 30.6, 202 31.3 C 202.7 32.1, 203.3 32.9, 204 33.4 C 204.7 33.9, 205.3 34.1, 206 34.4 C 206.7 34.6, 207.3 34.7, 208 34.9 C 208.7 35.1, 209.3 35.3, 210 35.6 C 210.7 35.9, 211.3 36.2, 212 36.8 C 212.7 37.4, 213.3 38.5, 214 39.2 C 214.7 39.9, 215.3 40.3, 216 41 C 216.7 41.8, 217.3 42.9, 218 43.5 C 218.7 44.2, 219.3 44.5, 220 45 C 220.7 45.5, 221.3 46.1, 222 46.6 C 222.7 47.1, 223.3 47.3, 224 47.7 C 224.7 48.1, 225.3 48.6, 226 49 C 226.7 49.3, 227.3 49.6, 228 50 C 228.7 50.4, 229.3 51, 230 51.3 C 230.7 51.7, 231.3 51.8, 232 52.1 C 232.7 52.4, 233.3 52.8, 234 53.2 C 234.7 53.7, 235.3 54.3, 236 54.7 C 236.7 55, 237.3 55.4, 238 55.6 C 238.7 55.9, 239.7 55.9, 240 56 L 240 58 L 0 58 Z" stroke="#2a4a35" stroke-width="1.5" fill="#2a4a35" fill-opacity="0.2"/>
</svg>